<svg width="570" height="216" viewBox="0 0 570 216" fill="none" xmlns="http://www.w3.org/2000/svg">
<rect x="0.5" y="0.5" width="569" height="215" rx="9.5" fill="white" stroke="#0073FB"/>
<path d="M273.659 130H269.227L282.045 95.0909H286.409L299.227 130H294.795L284.364 100.614H284.091L273.659 130ZM275.295 116.364H293.159V120.114H275.295V116.364ZM313.865 103.818V107.227H300.297V103.818H313.865ZM304.251 97.5455H308.274V122.5C308.274 123.636 308.439 124.489 308.768 125.057C309.109 125.614 309.541 125.989 310.064 126.182C310.598 126.364 311.161 126.455 311.751 126.455C312.195 126.455 312.558 126.432 312.842 126.386C313.126 126.33 313.354 126.284 313.524 126.25L314.342 129.864C314.07 129.966 313.689 130.068 313.2 130.17C312.712 130.284 312.092 130.341 311.342 130.341C310.206 130.341 309.092 130.097 308.001 129.608C306.922 129.119 306.024 128.375 305.308 127.375C304.604 126.375 304.251 125.114 304.251 123.591V97.5455ZM331.303 103.818V107.227H317.734V103.818H331.303ZM321.689 97.5455H325.712V122.5C325.712 123.636 325.876 124.489 326.206 125.057C326.547 125.614 326.979 125.989 327.501 126.182C328.036 126.364 328.598 126.455 329.189 126.455C329.632 126.455 329.996 126.432 330.28 126.386C330.564 126.33 330.791 126.284 330.962 126.25L331.78 129.864C331.507 129.966 331.126 130.068 330.638 130.17C330.149 130.284 329.53 130.341 328.78 130.341C327.643 130.341 326.53 130.097 325.439 129.608C324.359 129.119 323.462 128.375 322.746 127.375C322.041 126.375 321.689 125.114 321.689 123.591V97.5455ZM345.058 130.614C343.399 130.614 341.893 130.301 340.541 129.676C339.189 129.04 338.115 128.125 337.32 126.932C336.524 125.727 336.126 124.273 336.126 122.568C336.126 121.068 336.422 119.852 337.013 118.92C337.604 117.977 338.393 117.239 339.382 116.705C340.371 116.17 341.462 115.773 342.655 115.511C343.859 115.239 345.07 115.023 346.286 114.864C347.876 114.659 349.166 114.506 350.155 114.403C351.155 114.29 351.882 114.102 352.337 113.841C352.803 113.58 353.036 113.125 353.036 112.477V112.341C353.036 110.659 352.575 109.352 351.655 108.42C350.746 107.489 349.365 107.023 347.513 107.023C345.592 107.023 344.087 107.443 342.996 108.284C341.905 109.125 341.138 110.023 340.695 110.977L336.876 109.614C337.558 108.023 338.467 106.784 339.604 105.898C340.751 105 342.001 104.375 343.354 104.023C344.717 103.659 346.058 103.477 347.376 103.477C348.217 103.477 349.183 103.58 350.274 103.784C351.376 103.977 352.439 104.381 353.462 104.994C354.496 105.608 355.354 106.534 356.036 107.773C356.717 109.011 357.058 110.67 357.058 112.75V130H353.036V126.455H352.831C352.558 127.023 352.104 127.631 351.467 128.278C350.831 128.926 349.984 129.477 348.928 129.932C347.871 130.386 346.581 130.614 345.058 130.614ZM345.672 127C347.263 127 348.604 126.688 349.695 126.062C350.797 125.438 351.626 124.631 352.183 123.642C352.751 122.653 353.036 121.614 353.036 120.523V116.841C352.865 117.045 352.49 117.233 351.911 117.403C351.342 117.562 350.683 117.705 349.933 117.83C349.195 117.943 348.473 118.045 347.768 118.136C347.075 118.216 346.513 118.284 346.081 118.341C345.036 118.477 344.058 118.699 343.149 119.006C342.251 119.301 341.524 119.75 340.967 120.352C340.422 120.943 340.149 121.75 340.149 122.773C340.149 124.17 340.666 125.227 341.7 125.943C342.746 126.648 344.07 127 345.672 127ZM375.037 130.545C372.582 130.545 370.469 129.966 368.696 128.807C366.923 127.648 365.56 126.051 364.605 124.017C363.651 121.983 363.173 119.659 363.173 117.045C363.173 114.386 363.662 112.04 364.639 110.006C365.628 107.96 367.003 106.364 368.764 105.216C370.537 104.057 372.605 103.477 374.969 103.477C376.81 103.477 378.469 103.818 379.946 104.5C381.423 105.182 382.634 106.136 383.577 107.364C384.52 108.591 385.105 110.023 385.332 111.659H381.31C381.003 110.466 380.321 109.409 379.264 108.489C378.219 107.557 376.81 107.091 375.037 107.091C373.469 107.091 372.094 107.5 370.912 108.318C369.741 109.125 368.827 110.267 368.168 111.744C367.52 113.21 367.196 114.932 367.196 116.909C367.196 118.932 367.514 120.693 368.151 122.193C368.798 123.693 369.707 124.858 370.878 125.688C372.06 126.517 373.446 126.932 375.037 126.932C376.082 126.932 377.031 126.75 377.884 126.386C378.736 126.023 379.457 125.5 380.048 124.818C380.639 124.136 381.06 123.318 381.31 122.364H385.332C385.105 123.909 384.543 125.301 383.645 126.54C382.759 127.767 381.582 128.744 380.116 129.472C378.662 130.188 376.969 130.545 375.037 130.545ZM395.236 114.25V130H391.213V95.0909H395.236V107.909H395.577C396.19 106.557 397.111 105.483 398.338 104.688C399.577 103.881 401.224 103.477 403.281 103.477C405.065 103.477 406.628 103.835 407.969 104.551C409.31 105.256 410.349 106.341 411.088 107.807C411.838 109.261 412.213 111.114 412.213 113.364V130H408.19V113.636C408.19 111.557 407.651 109.949 406.571 108.812C405.503 107.665 404.02 107.091 402.122 107.091C400.804 107.091 399.622 107.369 398.577 107.926C397.543 108.483 396.724 109.295 396.122 110.364C395.531 111.432 395.236 112.727 395.236 114.25ZM433.618 130V95.0909H445.413C448.152 95.0909 450.391 95.5852 452.129 96.5739C453.879 97.5511 455.175 98.875 456.016 100.545C456.857 102.216 457.277 104.08 457.277 106.136C457.277 108.193 456.857 110.062 456.016 111.744C455.186 113.426 453.902 114.767 452.163 115.767C450.425 116.756 448.197 117.25 445.482 117.25H437.027V113.5H445.345C447.22 113.5 448.726 113.176 449.862 112.528C450.999 111.881 451.822 111.006 452.334 109.903C452.857 108.79 453.118 107.534 453.118 106.136C453.118 104.739 452.857 103.489 452.334 102.386C451.822 101.284 450.993 100.42 449.845 99.7955C448.697 99.1591 447.175 98.8409 445.277 98.8409H437.845V130H433.618ZM474.859 130H464.087V95.0909H475.337C478.723 95.0909 481.621 95.7898 484.03 97.1875C486.439 98.5739 488.286 100.568 489.57 103.17C490.854 105.761 491.496 108.864 491.496 112.477C491.496 116.114 490.848 119.244 489.553 121.869C488.257 124.483 486.371 126.494 483.893 127.903C481.416 129.301 478.405 130 474.859 130ZM468.314 126.25H474.587C477.473 126.25 479.865 125.693 481.763 124.58C483.661 123.466 485.075 121.881 486.007 119.824C486.939 117.767 487.405 115.318 487.405 112.477C487.405 109.659 486.945 107.233 486.024 105.199C485.104 103.153 483.729 101.585 481.899 100.494C480.07 99.392 477.791 98.8409 475.064 98.8409H468.314V126.25ZM498.587 130V95.0909H519.518V98.8409H502.814V110.636H517.95V114.386H502.814V130H498.587Z" fill="black" fill-opacity="0.85"/>
<path d="M187 122.667V164.333C187 173.542 179.542 181 170.333 181H53.6667C44.4583 181 37 173.542 37 164.333V47.6667C37 38.4583 44.4583 31 53.6667 31H95.3333V47.6667H53.6667V164.333H170.333V122.667H187Z" fill="#0073FB" fill-opacity="0.85"/>
<path d="M186.994 64.3333H153.661V31H136.994V64.3333H103.661V81H136.994V114.333H153.661V81H186.994" fill="#0073FB" fill-opacity="0.85"/>
</svg>
