<svg width="3894" height="558" viewBox="0 0 3894 558" fill="none" xmlns="http://www.w3.org/2000/svg">
<g filter="url(#filter0_d_19_718)">
<g filter="url(#filter1_d_19_718)">
<path d="M140.851 119.588L211.084 57L290.613 130.412L165.639 268.294L140.851 119.588Z" fill="#0073FB" fill-opacity="0.85" shape-rendering="crispEdges"/>
<path d="M140.851 293.706L111.415 145L4 245.235V448.529L140.851 293.706Z" fill="#0073FB" fill-opacity="0.85" shape-rendering="crispEdges"/>
<path d="M38.6001 457L211.084 259.824L272.022 457H38.6001Z" fill="#0073FB" fill-opacity="0.85" shape-rendering="crispEdges"/>
<path d="M265.308 326.176L238.971 236.765L311.786 152.059L416.619 245.235V293.706L265.308 326.176Z" fill="#0073FB" fill-opacity="0.85" shape-rendering="crispEdges"/>
<path d="M303.523 457L272.022 357.706L416.619 326.176V457H303.523Z" fill="#0073FB" fill-opacity="0.85" shape-rendering="crispEdges"/>
</g>
<path d="M493.605 457V93.3636H637.071C664.652 93.3636 688.148 98.6311 707.561 109.166C726.974 119.583 741.77 134.083 751.95 152.668C762.249 171.134 767.398 192.44 767.398 216.588C767.398 240.736 762.189 262.043 751.773 280.509C741.356 298.974 726.264 313.357 706.496 323.655C686.846 333.953 663.054 339.102 635.118 339.102H543.676V277.49H622.689C637.485 277.49 649.678 274.945 659.266 269.855C668.972 264.647 676.193 257.485 680.928 248.371C685.781 239.138 688.207 228.544 688.207 216.588C688.207 204.514 685.781 193.979 680.928 184.983C676.193 175.868 668.972 168.825 659.266 163.854C649.559 158.764 637.249 156.219 622.334 156.219H570.487V457H493.605ZM892.336 457V93.3636H969.218V393.612H1125.11V457H892.336ZM1322.98 457H1240.6L1366.13 93.3636H1465.2L1590.56 457H1508.17L1417.09 176.46H1414.25L1322.98 457ZM1317.83 314.067H1512.44V374.081H1317.83V314.067ZM2013.48 93.3636V457H1947.08L1788.87 228.129H1786.21V457H1709.33V93.3636H1776.8L1933.76 322.057H1936.96V93.3636H2013.48Z" fill="#0073FB" fill-opacity="0.85"/>
<path d="M2164.43 457V93.3636H2291.56C2316.89 93.3636 2337.79 97.7434 2354.24 106.503C2370.69 115.144 2382.95 126.803 2391 141.482C2399.04 156.041 2403.07 172.199 2403.07 189.955C2403.07 205.58 2400.29 218.482 2394.72 228.662C2389.28 238.842 2382.06 246.891 2373.06 252.81C2364.18 258.728 2354.54 263.108 2344.12 265.949V269.5C2355.25 270.21 2366.43 274.116 2377.68 281.219C2388.92 288.321 2398.33 298.501 2405.91 311.759C2413.49 325.016 2417.27 341.233 2417.27 360.409C2417.27 378.638 2413.13 395.033 2404.84 409.592C2396.56 424.152 2383.48 435.693 2365.6 444.216C2347.73 452.739 2324.47 457 2295.82 457H2164.43ZM2208.47 417.938H2295.82C2324.59 417.938 2345.01 412.374 2357.08 401.247C2369.27 390.002 2375.37 376.389 2375.37 360.409C2375.37 348.098 2372.23 336.735 2365.96 326.318C2359.69 315.783 2350.75 307.379 2339.15 301.105C2327.55 294.713 2313.82 291.517 2297.96 291.517H2208.47V417.938ZM2208.47 253.165H2290.14C2303.4 253.165 2315.36 250.561 2326.01 245.352C2336.78 240.144 2345.3 232.805 2351.58 223.335C2357.97 213.866 2361.17 202.739 2361.17 189.955C2361.17 173.974 2355.6 160.421 2344.48 149.294C2333.35 138.049 2315.71 132.426 2291.56 132.426H2208.47V253.165ZM2803.26 93.3636H2847.3V334.131C2847.3 358.989 2841.44 381.183 2829.72 400.714C2818.12 420.127 2801.73 435.456 2780.54 446.702C2759.35 457.829 2734.49 463.392 2705.96 463.392C2677.44 463.392 2652.58 457.829 2631.39 446.702C2610.2 435.456 2593.75 420.127 2582.03 400.714C2570.43 381.183 2564.63 358.989 2564.63 334.131V93.3636H2608.66V330.58C2608.66 348.335 2612.57 364.138 2620.38 377.987C2628.19 391.718 2639.32 402.549 2653.76 410.48C2668.32 418.293 2685.72 422.199 2705.96 422.199C2726.2 422.199 2743.61 418.293 2758.16 410.48C2772.72 402.549 2783.85 391.718 2791.55 377.987C2799.36 364.138 2803.26 348.335 2803.26 330.58V93.3636ZM3054.27 93.3636V457H3010.23V93.3636H3054.27ZM3217.56 457V93.3636H3261.59V417.938H3430.63V457H3217.56ZM3686.02 457H3573.81V93.3636H3691C3726.27 93.3636 3756.45 100.643 3781.55 115.203C3806.64 129.644 3825.88 150.419 3839.25 177.526C3852.63 204.514 3859.32 236.83 3859.32 274.472C3859.32 312.35 3852.57 344.962 3839.08 372.305C3825.58 399.531 3805.93 420.482 3780.13 435.161C3754.32 449.72 3722.96 457 3686.02 457ZM3617.84 417.938H3683.18C3713.25 417.938 3738.17 412.137 3757.93 400.537C3777.7 388.937 3792.44 372.424 3802.15 350.999C3811.85 329.573 3816.71 304.064 3816.71 274.472C3816.71 245.116 3811.91 219.843 3802.32 198.655C3792.74 177.348 3778.41 161.013 3759.35 149.649C3740.3 138.167 3716.56 132.426 3688.15 132.426H3617.84V417.938Z" fill="black"/>
</g>
<defs>
<filter id="filter0_d_19_718" x="0" y="0" width="3894" height="558" filterUnits="userSpaceOnUse" color-interpolation-filters="sRGB">
<feFlood flood-opacity="0" result="BackgroundImageFix"/>
<feColorMatrix in="SourceAlpha" type="matrix" values="0 0 0 0 0 0 0 0 0 0 0 0 0 0 0 0 0 0 127 0" result="hardAlpha"/>
<feOffset dy="4"/>
<feGaussianBlur stdDeviation="2"/>
<feComposite in2="hardAlpha" operator="out"/>
<feColorMatrix type="matrix" values="0 0 0 0 0 0 0 0 0 0 0 0 0 0 0 0 0 0 0.25 0"/>
<feBlend mode="normal" in2="BackgroundImageFix" result="effect1_dropShadow_19_718"/>
<feBlend mode="normal" in="SourceGraphic" in2="effect1_dropShadow_19_718" result="shape"/>
</filter>
<filter id="filter1_d_19_718" x="0" y="57" width="420.619" height="408" filterUnits="userSpaceOnUse" color-interpolation-filters="sRGB">
<feFlood flood-opacity="0" result="BackgroundImageFix"/>
<feColorMatrix in="SourceAlpha" type="matrix" values="0 0 0 0 0 0 0 0 0 0 0 0 0 0 0 0 0 0 127 0" result="hardAlpha"/>
<feOffset dy="4"/>
<feGaussianBlur stdDeviation="2"/>
<feComposite in2="hardAlpha" operator="out"/>
<feColorMatrix type="matrix" values="0 0 0 0 0 0 0 0 0 0 0 0 0 0 0 0 0 0 0.25 0"/>
<feBlend mode="normal" in2="BackgroundImageFix" result="effect1_dropShadow_19_718"/>
<feBlend mode="normal" in="SourceGraphic" in2="effect1_dropShadow_19_718" result="shape"/>
</filter>
</defs>
</svg>
