<svg width="369" height="78" viewBox="0 0 369 78" fill="none" xmlns="http://www.w3.org/2000/svg">
<g filter="url(#filter0_d_40_5)">
<path d="M25.9175 10.9529L37.1657 0L49.9025 12.8471L29.8874 36.9765L25.9175 10.9529Z" fill="#0073FB" fill-opacity="0.85"/>
<path d="M25.9173 41.4236L21.203 15.4L4 32.9412V68.5177L25.9173 41.4236Z" fill="#0073FB" fill-opacity="0.85"/>
<path d="M9.5415 70L37.1657 35.4941L46.9251 70H9.5415Z" fill="#0073FB" fill-opacity="0.85"/>
<path d="M45.8499 47.1058L41.6318 31.4588L53.2935 16.6353L70.0831 32.9411V41.4235L45.8499 47.1058Z" fill="#0073FB" fill-opacity="0.85"/>
<path d="M51.9699 70L46.9248 52.6235L70.0828 47.1058V70H51.9699Z" fill="#0073FB" fill-opacity="0.85"/>
<path d="M81 42V5H91.2778C93.2539 5 94.9369 5.53595 96.3278 6.60785C97.7186 7.66777 98.7783 9.14327 99.5078 11.0341C100.245 12.9131 100.614 15.081 100.614 17.5381C100.614 19.9951 100.241 22.163 99.4951 24.042C98.7484 25.9209 97.6669 27.3843 96.2515 28.4322C94.8434 29.48 93.1386 30.004 91.1381 30.004H84.5874V23.7349H90.2471C91.3077 23.7349 92.1805 23.4759 92.8674 22.958C93.5632 22.4281 94.0804 21.6994 94.4197 20.7719C94.7672 19.8325 94.9414 18.7545 94.9414 17.5381C94.9414 16.3096 94.7672 15.2376 94.4197 14.3222C94.0804 13.3948 93.5632 12.6782 92.8674 12.1724C92.1724 11.6545 91.2905 11.3954 90.2217 11.3954H86.5082V42H81ZM114.937 42V5H120.445V35.5503H131.613V42H114.937ZM151.161 42H145.259L154.252 5H161.35L170.33 42H164.428L157.903 13.4551H157.699L151.161 42ZM150.792 27.4565H164.733V33.5629H150.792V27.4565ZM206 5V42H201.243L189.909 18.7124H189.719V42H184.211V5H189.045L200.289 28.2696H200.518V5H206Z" fill="#0073FB" fill-opacity="0.85"/>
<path d="M222 41.3608V5H231.113C232.929 5 234.427 5.43792 235.606 6.31375C236.785 7.17781 237.663 8.34378 238.241 9.8114C238.818 11.2672 239.106 12.8829 239.106 14.6584C239.106 16.2207 238.907 17.5109 238.508 18.5288C238.117 19.5466 237.6 20.3516 236.955 20.9433C236.319 21.5351 235.627 21.9732 234.881 22.2572V22.6123C235.678 22.6834 236.48 23.0739 237.287 23.7841C238.092 24.4943 238.766 25.5121 239.31 26.8378C239.853 28.1634 240.125 29.785 240.125 31.7025C240.125 33.5253 239.828 35.1647 239.234 36.6205C238.639 38.0763 237.701 39.2304 236.42 40.0826C235.139 40.9347 233.472 41.3608 231.418 41.3608H222ZM225.157 37.4549H231.418C233.481 37.4549 234.944 36.8986 235.809 35.7859C236.684 34.6615 237.12 33.3004 237.12 31.7025C237.12 30.4715 236.896 29.3352 236.446 28.2937C235.996 27.2402 235.356 26.3998 234.524 25.7726C233.692 25.1334 232.708 24.8138 231.572 24.8138H225.157V37.4549ZM225.157 20.9789H231.011C231.962 20.9789 232.819 20.7184 233.582 20.1977C234.354 19.677 234.965 18.9431 235.415 17.9962C235.873 17.0492 236.103 15.9367 236.103 14.6584C236.103 13.0604 235.703 11.7052 234.906 10.5926C234.108 9.46821 232.844 8.90593 231.113 8.90593H225.157V20.9789ZM273.17 5H276.326V29.0748C276.326 31.5605 275.906 33.7797 275.066 35.7328C274.235 37.6739 273.06 39.2067 271.541 40.3311C270.022 41.4437 268.24 42 266.195 42C264.15 42 262.368 41.4437 260.849 40.3311C259.33 39.2067 258.151 37.6739 257.311 35.7328C256.48 33.7797 256.064 31.5605 256.064 29.0748V5H259.221V28.7197C259.221 30.4952 259.5 32.0753 260.06 33.4602C260.62 34.8332 261.418 35.9163 262.453 36.7093C263.497 37.4904 264.744 37.8811 266.195 37.8811C267.646 37.8811 268.893 37.4904 269.937 36.7093C270.981 35.9163 271.778 34.8332 272.33 33.4602C272.89 32.0753 273.17 30.4952 273.17 28.7197V5ZM296.539 5V41.3608H293.382V5H296.539ZM313.62 41.3608V5H316.777V37.4549H328.893V41.3608H313.62ZM352.578 41.3608H344.534V5H352.935C355.463 5 357.626 5.72792 359.426 7.18377C361.224 8.62783 362.603 10.7051 363.562 13.4155C364.521 16.1142 365 19.3455 365 23.1094C365 26.897 364.517 30.1579 363.549 32.892C362.582 35.6143 361.173 37.7093 359.324 39.1771C357.474 40.6329 355.225 41.3608 352.578 41.3608ZM347.691 37.4549H352.374C354.53 37.4549 356.315 36.8749 357.733 35.715C359.15 34.555 360.206 32.9039 360.902 30.7615C361.597 28.6192 361.946 26.0684 361.946 23.1094C361.946 20.174 361.602 17.6469 360.915 15.5283C360.227 13.3978 359.201 11.7644 357.834 10.6281C356.469 9.47998 354.767 8.90593 352.73 8.90593H347.691V37.4549Z" fill="white"/>
<path d="M91.3312 56.8139H89.8486C89.7613 56.3473 89.6072 55.9375 89.3881 55.5843C89.1727 55.2311 88.91 54.9346 88.5989 54.6948C88.2926 54.4506 87.9518 54.2675 87.5768 54.1453C87.2017 54.0232 86.8118 53.9621 86.4051 53.9621C85.6633 53.9621 84.9921 54.1671 84.3905 54.577C83.7926 54.9869 83.3164 55.5908 82.9617 56.3888C82.6108 57.1868 82.4353 58.1657 82.4353 59.3256C82.4353 60.4855 82.6108 61.4644 82.9617 62.2624C83.3164 63.0603 83.7926 63.6642 84.3905 64.0742C84.9921 64.484 85.6633 64.689 86.4051 64.689C86.8118 64.689 87.2017 64.6279 87.5768 64.5059C87.9518 64.3838 88.2926 64.2028 88.5989 63.963C88.91 63.7188 89.1727 63.4201 89.3881 63.0669C89.6072 62.7093 89.7613 62.2994 89.8486 61.8372H91.3312C91.2198 62.5218 91.0165 63.1345 90.7213 63.6751C90.427 64.2159 90.0602 64.6759 89.6211 65.0553C89.1829 65.4302 88.6909 65.7159 88.145 65.9121C87.6028 66.1083 87.0225 66.2064 86.4051 66.2064C85.3607 66.2064 84.4323 65.9273 83.619 65.3692C82.8057 64.8111 82.1661 64.0175 81.7 62.9884C81.2339 61.9593 81 60.7384 81 59.3256C81 57.9128 81.2339 56.6918 81.7 55.6627C82.1661 54.6337 82.8057 53.84 83.619 53.2819C84.4323 52.7238 85.3607 52.4447 86.4051 52.4447C87.0225 52.4447 87.6028 52.5428 88.145 52.739C88.6909 52.9353 89.1829 53.2231 89.6211 53.6025C90.0602 53.9775 90.427 54.4353 90.7213 54.976C91.0165 55.5123 91.2198 56.125 91.3312 56.8139ZM97.2665 66.2326C96.4374 66.2326 95.7105 66.0167 95.0847 65.585C94.4627 65.1534 93.9762 64.5494 93.6253 63.7732C93.279 62.9971 93.1054 62.0901 93.1054 61.0524C93.1054 60.0058 93.279 59.0923 93.6253 58.3118C93.9762 57.5312 94.4627 56.9251 95.0847 56.4935C95.7105 56.0617 96.4374 55.8459 97.2665 55.8459C98.0955 55.8459 98.8206 56.0617 99.4426 56.4935C100.068 56.9251 100.555 57.5312 100.901 58.3118C101.252 59.0923 101.428 60.0058 101.428 61.0524C101.428 62.0901 101.252 62.9971 100.901 63.7732C100.555 64.5494 100.068 65.1534 99.4426 65.585C98.8206 66.0167 98.0955 66.2326 97.2665 66.2326ZM97.2665 64.8459C97.8959 64.8459 98.414 64.6694 98.8206 64.3161C99.2273 63.963 99.5281 63.4986 99.7239 62.923C99.9189 62.3474 100.016 61.7238 100.016 61.0524C100.016 60.3808 99.9189 59.7551 99.7239 59.1751C99.5281 58.5952 99.2273 58.1264 98.8206 57.7689C98.414 57.4114 97.8959 57.2325 97.2665 57.2325C96.637 57.2325 96.119 57.4114 95.7123 57.7689C95.3057 58.1264 95.0049 58.5952 94.809 59.1751C94.614 59.7551 94.5166 60.3808 94.5166 61.0524C94.5166 61.7238 94.614 62.3474 94.809 62.923C95.0049 63.4986 95.3057 63.963 95.7123 64.3161C96.119 64.6694 96.637 64.8459 97.2665 64.8459ZM104.993 59.9797V66.0233H103.581V55.9767H104.944V57.5465H105.064C105.279 57.0363 105.606 56.6264 106.044 56.3168C106.483 56.0029 107.049 55.8459 107.743 55.8459C108.365 55.8459 108.909 55.9854 109.375 56.2645C109.841 56.5392 110.204 56.9579 110.463 57.5203C110.722 58.0785 110.851 58.7849 110.851 59.6395V66.0233H109.441V59.7441C109.441 58.9549 109.253 58.3401 108.878 57.8997C108.504 57.4549 107.989 57.2325 107.336 57.2325C106.886 57.2325 106.483 57.3394 106.128 57.5531C105.777 57.7667 105.5 58.0785 105.297 58.4883C105.094 58.8983 104.993 59.3953 104.993 59.9797ZM119.934 58.2268L118.667 58.6191C118.587 58.3881 118.469 58.1635 118.314 57.9455C118.162 57.7231 117.955 57.54 117.692 57.396C117.429 57.2522 117.092 57.1802 116.682 57.1802C116.119 57.1802 115.652 57.3219 115.276 57.6054C114.906 57.8845 114.72 58.2398 114.72 58.6714C114.72 59.0552 114.848 59.3583 115.104 59.5807C115.358 59.803 115.757 59.9884 116.299 60.1366L117.662 60.5029C118.483 60.7209 119.095 61.0545 119.498 61.5036C119.9 61.9484 120.101 62.5218 120.101 63.2238C120.101 63.7994 119.95 64.314 119.647 64.7675C119.348 65.2209 118.93 65.5785 118.391 65.8402C117.854 66.1017 117.228 66.2326 116.514 66.2326C115.577 66.2326 114.802 66.0102 114.188 65.5654C113.575 65.1207 113.187 64.4709 113.023 63.6163L114.362 63.25C114.489 63.7907 114.731 64.1963 115.085 64.4665C115.445 64.7369 115.912 64.8721 116.491 64.8721C117.148 64.8721 117.67 64.7195 118.057 64.4142C118.447 64.1046 118.643 63.734 118.643 63.3023C118.643 62.9535 118.531 62.6613 118.308 62.4259C118.085 62.1861 117.742 62.0072 117.28 61.8895L115.749 61.4971C114.908 61.2791 114.291 60.9411 113.896 60.4833C113.505 60.0211 113.31 59.4433 113.31 58.75C113.31 58.1831 113.455 57.6816 113.746 57.2456C114.041 56.8096 114.442 56.4673 114.948 56.2187C115.458 55.9702 116.036 55.8459 116.682 55.8459C117.59 55.8459 118.304 56.0639 118.822 56.5C119.344 56.936 119.715 57.5116 119.934 58.2268ZM126.219 55.9767V57.2849H121.46V55.9767H126.219ZM122.847 53.5698H124.258V63.1453C124.258 63.5814 124.315 63.9084 124.431 64.1265C124.551 64.3401 124.703 64.484 124.885 64.5582C125.073 64.6279 125.271 64.6628 125.478 64.6628C125.633 64.6628 125.761 64.654 125.86 64.6367C125.96 64.6148 126.039 64.5974 126.1 64.5844L126.387 65.9709C126.291 66.0102 126.157 66.0494 125.986 66.0887C125.815 66.1323 125.597 66.1541 125.334 66.1541C124.936 66.1541 124.545 66.0604 124.162 65.8729C123.783 65.6854 123.469 65.3998 123.218 65.016C122.971 64.6323 122.847 64.1482 122.847 63.564V53.5698ZM128.341 66.0233V55.9767H129.705V57.4941H129.8C129.967 56.9971 130.27 56.5937 130.709 56.2841C131.147 55.9745 131.641 55.8198 132.192 55.8198C132.295 55.8198 132.425 55.8219 132.58 55.8263C132.736 55.8306 132.853 55.8372 132.933 55.8459V57.4156C132.885 57.4026 132.775 57.3829 132.604 57.3568C132.437 57.3262 132.26 57.311 132.072 57.311C131.626 57.311 131.227 57.4135 130.876 57.6185C130.529 57.8191 130.254 58.0981 130.051 58.4556C129.852 58.8089 129.752 59.2122 129.752 59.6657V66.0233H128.341ZM140.392 61.9157V55.9767H141.804V66.0233H140.392V64.3227H140.297C140.081 64.8329 139.747 65.2667 139.292 65.6242C138.838 65.9775 138.265 66.1541 137.571 66.1541C136.996 66.1541 136.487 66.0167 136.04 65.7421C135.594 65.4629 135.243 65.0444 134.988 64.4863C134.733 63.9238 134.606 63.2151 134.606 62.3605V55.9767H136.016V62.2559C136.016 62.9884 136.204 63.5727 136.579 64.0088C136.956 64.4448 137.439 64.6628 138.025 64.6628C138.376 64.6628 138.732 64.5647 139.095 64.3684C139.462 64.1723 139.769 63.8713 140.016 63.4659C140.267 63.0603 140.392 62.5436 140.392 61.9157ZM148.119 66.2326C147.257 66.2326 146.516 66.0102 145.894 65.5654C145.272 65.1207 144.794 64.508 144.46 63.7275C144.125 62.947 143.958 62.0553 143.958 61.0524C143.958 60.032 144.128 59.1316 144.471 58.351C144.818 57.5662 145.3 56.9535 145.918 56.5131C146.54 56.0683 147.265 55.8459 148.094 55.8459C148.74 55.8459 149.322 55.9767 149.84 56.2383C150.358 56.5 150.783 56.8662 151.114 57.3372C151.444 57.8081 151.649 58.3575 151.729 58.9855H150.318C150.211 58.5276 149.972 58.1221 149.601 57.7689C149.235 57.4114 148.74 57.2325 148.119 57.2325C147.568 57.2325 147.086 57.3895 146.671 57.7035C146.261 58.0131 145.94 58.4512 145.708 59.0181C145.482 59.5807 145.368 60.2413 145.368 60.9999C145.368 61.7761 145.48 62.452 145.703 63.0276C145.93 63.6032 146.249 64.0502 146.659 64.3684C147.074 64.6868 147.561 64.8459 148.119 64.8459C148.485 64.8459 148.818 64.7761 149.117 64.6367C149.416 64.4971 149.669 64.2965 149.876 64.0349C150.083 63.7732 150.231 63.4593 150.318 63.093H151.729C151.649 63.6861 151.452 64.2202 151.138 64.6955C150.827 65.1665 150.414 65.5415 149.9 65.8205C149.39 66.0952 148.795 66.2326 148.119 66.2326ZM157.785 55.9767V57.2849H153.027V55.9767H157.785ZM154.414 53.5698H155.824V63.1453C155.824 63.5814 155.883 63.9084 155.998 64.1265C156.118 64.3401 156.269 64.484 156.452 64.5582C156.639 64.6279 156.837 64.6628 157.044 64.6628C157.199 64.6628 157.327 64.654 157.427 64.6367C157.526 64.6148 157.606 64.5974 157.666 64.5844L157.953 65.9709C157.857 66.0102 157.724 66.0494 157.552 66.0887C157.381 66.1323 157.164 66.1541 156.9 66.1541C156.502 66.1541 156.111 66.0604 155.729 65.8729C155.35 65.6854 155.035 65.3998 154.785 65.016C154.538 64.6323 154.414 64.1482 154.414 63.564V53.5698ZM159.908 66.0233V55.9767H161.319V66.0233H159.908ZM160.625 54.3023C160.35 54.3023 160.114 54.1998 159.914 53.9948C159.719 53.79 159.621 53.5436 159.621 53.2558C159.621 52.968 159.719 52.7217 159.914 52.5167C160.114 52.3117 160.35 52.2092 160.625 52.2092C160.901 52.2092 161.136 52.3117 161.331 52.5167C161.53 52.7217 161.63 52.968 161.63 53.2558C161.63 53.5436 161.53 53.79 161.331 53.9948C161.136 54.1998 160.901 54.3023 160.625 54.3023ZM167.634 66.2326C166.804 66.2326 166.078 66.0167 165.452 65.585C164.83 65.1534 164.343 64.5494 163.992 63.7732C163.646 62.9971 163.472 62.0901 163.472 61.0524C163.472 60.0058 163.646 59.0923 163.992 58.3118C164.343 57.5312 164.83 56.9251 165.452 56.4935C166.078 56.0617 166.804 55.8459 167.634 55.8459C168.463 55.8459 169.188 56.0617 169.81 56.4935C170.435 56.9251 170.922 57.5312 171.268 58.3118C171.619 59.0923 171.795 60.0058 171.795 61.0524C171.795 62.0901 171.619 62.9971 171.268 63.7732C170.922 64.5494 170.435 65.1534 169.81 65.585C169.188 66.0167 168.463 66.2326 167.634 66.2326ZM167.634 64.8459C168.263 64.8459 168.782 64.6694 169.188 64.3161C169.594 63.963 169.895 63.4986 170.091 62.923C170.286 62.3474 170.383 61.7238 170.383 61.0524C170.383 60.3808 170.286 59.7551 170.091 59.1751C169.895 58.5952 169.594 58.1264 169.188 57.7689C168.782 57.4114 168.263 57.2325 167.634 57.2325C167.004 57.2325 166.486 57.4114 166.079 57.7689C165.673 58.1264 165.372 58.5952 165.176 59.1751C164.981 59.7551 164.884 60.3808 164.884 61.0524C164.884 61.7238 164.981 62.3474 165.176 62.923C165.372 63.4986 165.673 63.963 166.079 64.3161C166.486 64.6694 167.004 64.8459 167.634 64.8459ZM175.36 59.9797V66.0233H173.949V55.9767H175.311V57.5465H175.431C175.647 57.0363 175.973 56.6264 176.412 56.3168C176.85 56.0029 177.416 55.8459 178.11 55.8459C178.732 55.8459 179.276 55.9854 179.742 56.2645C180.208 56.5392 180.571 56.9579 180.83 57.5203C181.089 58.0785 181.219 58.7849 181.219 59.6395V66.0233H179.808V59.7441C179.808 58.9549 179.62 58.3401 179.245 57.8997C178.871 57.4549 178.357 57.2325 177.703 57.2325C177.253 57.2325 176.85 57.3394 176.495 57.5531C176.144 57.7667 175.868 58.0785 175.664 58.4883C175.461 58.8983 175.36 59.3953 175.36 59.9797ZM188.532 66.0233V55.9767H189.895V57.5465H190.014C190.206 57.0102 190.515 56.5937 190.941 56.2972C191.367 55.9964 191.88 55.8459 192.477 55.8459C193.083 55.8459 193.588 55.9964 193.99 56.2972C194.397 56.5937 194.713 57.0102 194.941 57.5465H195.036C195.271 57.0276 195.624 56.6156 196.095 56.3103C196.564 56.0007 197.129 55.8459 197.786 55.8459C198.608 55.8459 199.279 56.1271 199.801 56.6896C200.323 57.2478 200.584 58.1177 200.584 59.2995V66.0233H199.173V59.2995C199.173 58.5581 198.988 58.0283 198.617 57.71C198.247 57.3917 197.81 57.2325 197.308 57.2325C196.663 57.2325 196.162 57.4462 195.808 57.8735C195.453 58.2964 195.276 58.8328 195.276 59.4826V66.0233H193.84V59.1424C193.84 58.5712 193.671 58.1112 193.333 57.7623C192.994 57.4091 192.557 57.2325 192.023 57.2325C191.657 57.2325 191.313 57.3394 190.995 57.5531C190.68 57.7667 190.425 58.0632 190.23 58.4426C190.039 58.8176 189.943 59.2514 189.943 59.7441V66.0233H188.532ZM205.866 66.2588C205.285 66.2588 204.756 66.1388 204.282 65.899C203.808 65.6548 203.431 65.3038 203.152 64.8459C202.873 64.3838 202.734 63.8256 202.734 63.1715C202.734 62.5959 202.838 62.1294 203.045 61.7718C203.252 61.4099 203.529 61.1264 203.875 60.9215C204.223 60.7166 204.605 60.5639 205.023 60.4637C205.445 60.359 205.871 60.2762 206.297 60.2151C206.855 60.1366 207.307 60.0778 207.654 60.0385C208.005 59.9949 208.259 59.923 208.419 59.8226C208.582 59.7224 208.664 59.548 208.664 59.2995V59.247C208.664 58.6018 208.503 58.1003 208.18 57.7427C207.861 57.3852 207.376 57.2064 206.727 57.2064C206.053 57.2064 205.525 57.3677 205.143 57.6904C204.76 58.0131 204.491 58.3575 204.336 58.7239L202.996 58.2006C203.236 57.5901 203.554 57.1148 203.953 56.7747C204.355 56.4302 204.795 56.1904 205.268 56.0552C205.747 55.9156 206.217 55.8459 206.679 55.8459C206.974 55.8459 207.313 55.8852 207.696 55.9637C208.082 56.0377 208.455 56.1925 208.814 56.4281C209.177 56.6635 209.477 57.0189 209.717 57.4941C209.956 57.9695 210.075 58.6061 210.075 59.4041V66.0233H208.664V64.6628H208.593C208.497 64.8809 208.337 65.1142 208.115 65.3627C207.891 65.6112 207.594 65.8227 207.223 65.9971C206.853 66.1715 206.401 66.2588 205.866 66.2588ZM206.081 64.8721C206.639 64.8721 207.11 64.7522 207.492 64.5124C207.879 64.2725 208.17 63.963 208.365 63.5836C208.565 63.2042 208.664 62.8053 208.664 62.3866V60.9738C208.605 61.0524 208.473 61.1243 208.27 61.1897C208.07 61.2507 207.839 61.3053 207.576 61.3532C207.317 61.3968 207.064 61.4361 206.817 61.4709C206.573 61.5015 206.377 61.5276 206.225 61.5494C205.858 61.6018 205.516 61.6868 205.197 61.8045C204.882 61.9178 204.627 62.0901 204.432 62.3212C204.24 62.548 204.145 62.8576 204.145 63.25C204.145 63.7863 204.326 64.1919 204.689 64.4665C205.055 64.7369 205.52 64.8721 206.081 64.8721ZM214.061 59.9797V66.0233H212.651V55.9767H214.014V57.5465H214.133C214.349 57.0363 214.676 56.6264 215.114 56.3168C215.552 56.0029 216.118 55.8459 216.812 55.8459C217.433 55.8459 217.977 55.9854 218.444 56.2645C218.91 56.5392 219.273 56.9579 219.532 57.5203C219.791 58.0785 219.92 58.7849 219.92 59.6395V66.0233H218.51V59.7441C218.51 58.9549 218.322 58.3401 217.947 57.8997C217.573 57.4549 217.059 57.2325 216.405 57.2325C215.955 57.2325 215.552 57.3394 215.197 57.5531C214.846 57.7667 214.57 58.0785 214.366 58.4883C214.163 58.8983 214.061 59.3953 214.061 59.9797ZM225.201 66.2588C224.619 66.2588 224.09 66.1388 223.617 65.899C223.143 65.6548 222.766 65.3038 222.486 64.8459C222.208 64.3838 222.068 63.8256 222.068 63.1715C222.068 62.5959 222.171 62.1294 222.379 61.7718C222.586 61.4099 222.863 61.1264 223.21 60.9215C223.557 60.7166 223.939 60.5639 224.358 60.4637C224.78 60.359 225.204 60.2762 225.632 60.2151C226.19 60.1366 226.642 60.0778 226.989 60.0385C227.339 59.9949 227.594 59.923 227.754 59.8226C227.917 59.7224 227.999 59.548 227.999 59.2995V59.247C227.999 58.6018 227.837 58.1003 227.514 57.7427C227.196 57.3852 226.711 57.2064 226.061 57.2064C225.388 57.2064 224.86 57.3677 224.478 57.6904C224.095 58.0131 223.826 58.3575 223.671 58.7239L222.331 58.2006C222.571 57.5901 222.889 57.1148 223.287 56.7747C223.69 56.4302 224.128 56.1904 224.603 56.0552C225.081 55.9156 225.552 55.8459 226.014 55.8459C226.309 55.8459 226.647 55.8852 227.031 55.9637C227.417 56.0377 227.789 56.1925 228.148 56.4281C228.511 56.6635 228.812 57.0189 229.051 57.4941C229.29 57.9695 229.41 58.6061 229.41 59.4041V66.0233H227.999V64.6628H227.927C227.831 64.8809 227.672 65.1142 227.448 65.3627C227.226 65.6112 226.929 65.8227 226.558 65.9971C226.188 66.1715 225.735 66.2588 225.201 66.2588ZM225.416 64.8721C225.974 64.8721 226.445 64.7522 226.827 64.5124C227.214 64.2725 227.504 63.963 227.7 63.5836C227.899 63.2042 227.999 62.8053 227.999 62.3866V60.9738C227.939 61.0524 227.808 61.1243 227.604 61.1897C227.405 61.2507 227.174 61.3053 226.911 61.3532C226.652 61.3968 226.398 61.4361 226.151 61.4709C225.908 61.5015 225.711 61.5276 225.559 61.5494C225.192 61.6018 224.85 61.6868 224.531 61.8045C224.217 61.9178 223.961 62.0901 223.766 62.3212C223.574 62.548 223.479 62.8576 223.479 63.25C223.479 63.7863 223.661 64.1919 224.023 64.4665C224.389 64.7369 224.854 64.8721 225.416 64.8721ZM235.692 70C235.01 70 234.424 69.9041 233.934 69.7123C233.444 69.5248 233.036 69.2762 232.709 68.9666C232.386 68.6614 232.128 68.3343 231.937 67.9855L233.062 67.1221C233.189 67.3052 233.35 67.5146 233.545 67.75C233.741 67.9898 234.008 68.197 234.346 68.3714C234.689 68.5502 235.137 68.6396 235.692 68.6396C236.433 68.6396 237.044 68.4433 237.527 68.0509C238.009 67.6585 238.25 67.0436 238.25 66.2064V64.1657H238.131C238.028 64.3488 237.88 64.5756 237.689 64.8459C237.501 65.1119 237.23 65.3496 236.875 65.5589C236.524 65.7638 236.05 65.8663 235.452 65.8663C234.711 65.8663 234.046 65.6744 233.456 65.2907C232.869 64.907 232.405 64.3488 232.063 63.6163C231.724 62.8838 231.555 61.9942 231.555 60.9476C231.555 59.9186 231.72 59.0225 232.05 58.2595C232.382 57.492 232.841 56.8989 233.432 56.4804C234.021 56.0574 234.703 55.8459 235.476 55.8459C236.074 55.8459 236.549 55.9549 236.9 56.1729C237.254 56.3866 237.525 56.6308 237.713 56.9055C237.904 57.1758 238.051 57.3983 238.155 57.5727H238.299V55.9767H239.662V66.3111C239.662 67.1744 239.482 67.8765 239.123 68.4172C238.768 68.9623 238.29 69.3612 237.689 69.6141C237.091 69.8714 236.425 70 235.692 70ZM235.643 64.4797C236.21 64.4797 236.688 64.338 237.079 64.0545C237.47 63.7711 237.767 63.3634 237.969 62.8314C238.172 62.2994 238.274 61.6628 238.274 60.9215C238.274 60.1976 238.175 59.5589 237.976 59.0051C237.776 58.4513 237.482 58.0174 237.091 57.7035C236.7 57.3895 236.218 57.2325 235.643 57.2325C235.046 57.2325 234.548 57.3983 234.15 57.7296C233.755 58.061 233.458 58.5058 233.258 59.0639C233.063 59.622 232.966 60.2413 232.966 60.9215C232.966 61.6192 233.065 62.2362 233.264 62.7726C233.467 63.3045 233.766 63.7232 234.161 64.0284C234.56 64.3292 235.054 64.4797 235.643 64.4797ZM246.094 66.2326C245.21 66.2326 244.446 66.019 243.805 65.5916C243.167 65.1599 242.674 64.5582 242.328 63.7863C241.985 63.0102 241.814 62.1076 241.814 61.0785C241.814 60.0495 241.985 59.1424 242.328 58.3575C242.674 57.5683 243.157 56.9535 243.774 56.5131C244.396 56.0683 245.121 55.8459 245.95 55.8459C246.43 55.8459 246.901 55.9331 247.368 56.1075C247.834 56.2819 248.258 56.5654 248.641 56.9579C249.023 57.346 249.329 57.8604 249.555 58.5014C249.783 59.1424 249.896 59.9316 249.896 60.8692V61.5232H242.818V60.1889H248.462C248.462 59.622 248.358 59.1162 248.151 58.6714C247.947 58.2268 247.657 57.8757 247.278 57.6185C246.903 57.3612 246.461 57.2325 245.95 57.2325C245.389 57.2325 244.902 57.3852 244.492 57.6904C244.085 57.9912 243.772 58.3837 243.553 58.8677C243.334 59.3518 243.225 59.8706 243.225 60.4244V61.314C243.225 62.0726 243.344 62.7159 243.583 63.2434C243.826 63.7667 244.163 64.1657 244.594 64.4404C245.024 64.7108 245.524 64.8459 246.094 64.8459C246.465 64.8459 246.8 64.7892 247.099 64.6759C247.402 64.5582 247.662 64.3838 247.882 64.1526C248.101 63.9172 248.271 63.625 248.39 63.2761L249.753 63.6948C249.609 64.2006 249.369 64.6454 249.03 65.029C248.691 65.4084 248.272 65.705 247.774 65.9186C247.276 66.1279 246.716 66.2326 246.094 66.2326ZM252.043 66.0233V55.9767H253.406V57.5465H253.525C253.717 57.0102 254.026 56.5937 254.452 56.2972C254.879 55.9964 255.39 55.8459 255.988 55.8459C256.595 55.8459 257.099 55.9964 257.502 56.2972C257.908 56.5937 258.225 57.0102 258.452 57.5465H258.548C258.783 57.0276 259.136 56.6156 259.605 56.3103C260.076 56.0007 260.64 55.8459 261.298 55.8459C262.119 55.8459 262.791 56.1271 263.312 56.6896C263.834 57.2478 264.096 58.1177 264.096 59.2995V66.0233H262.685V59.2995C262.685 58.5581 262.499 58.0283 262.129 57.71C261.758 57.3917 261.322 57.2325 260.82 57.2325C260.174 57.2325 259.673 57.4462 259.319 57.8735C258.964 58.2964 258.787 58.8328 258.787 59.4826V66.0233H257.352V59.1424C257.352 58.5712 257.182 58.1112 256.843 57.7623C256.505 57.4091 256.068 57.2325 255.534 57.2325C255.168 57.2325 254.825 57.3394 254.506 57.5531C254.191 57.7667 253.937 58.0632 253.741 58.4426C253.549 58.8176 253.454 59.2514 253.454 59.7441V66.0233H252.043ZM270.525 66.2326C269.64 66.2326 268.877 66.019 268.236 65.5916C267.598 65.1599 267.106 64.5582 266.759 63.7863C266.416 63.0102 266.245 62.1076 266.245 61.0785C266.245 60.0495 266.416 59.1424 266.759 58.3575C267.106 57.5683 267.588 56.9535 268.206 56.5131C268.827 56.0683 269.553 55.8459 270.382 55.8459C270.86 55.8459 271.333 55.9331 271.799 56.1075C272.265 56.2819 272.689 56.5654 273.073 56.9579C273.455 57.346 273.76 57.8604 273.987 58.5014C274.215 59.1424 274.328 59.9316 274.328 60.8692V61.5232H267.249V60.1889H272.893C272.893 59.622 272.79 59.1162 272.583 58.6714C272.379 58.2268 272.088 57.8757 271.709 57.6185C271.335 57.3612 270.892 57.2325 270.382 57.2325C269.82 57.2325 269.334 57.3852 268.924 57.6904C268.517 57.9912 268.204 58.3837 267.984 58.8677C267.765 59.3518 267.656 59.8706 267.656 60.4244V61.314C267.656 62.0726 267.775 62.7159 268.015 63.2434C268.258 63.7667 268.594 64.1657 269.025 64.4404C269.456 64.7108 269.955 64.8459 270.525 64.8459C270.897 64.8459 271.231 64.7892 271.53 64.6759C271.832 64.5582 272.094 64.3838 272.313 64.1526C272.532 63.9172 272.701 63.625 272.821 63.2761L274.184 63.6948C274.041 64.2006 273.8 64.6454 273.461 65.029C273.122 65.4084 272.703 65.705 272.206 65.9186C271.707 66.1279 271.147 66.2326 270.525 66.2326ZM277.885 59.9797V66.0233H276.474V55.9767H277.837V57.5465H277.957C278.172 57.0363 278.499 56.6264 278.937 56.3168C279.376 56.0029 279.942 55.8459 280.635 55.8459C281.257 55.8459 281.801 55.9854 282.268 56.2645C282.734 56.5392 283.097 56.9579 283.356 57.5203C283.615 58.0785 283.744 58.7849 283.744 59.6395V66.0233H282.333V59.7441C282.333 58.9549 282.146 58.3401 281.771 57.8997C281.397 57.4549 280.882 57.2325 280.229 57.2325C279.779 57.2325 279.376 57.3394 279.021 57.5531C278.67 57.7667 278.393 58.0785 278.19 58.4883C277.987 58.8983 277.885 59.3953 277.885 59.9797ZM290.316 55.9767V57.2849H285.557V55.9767H290.316ZM286.944 53.5698H288.355V63.1453C288.355 63.5814 288.413 63.9084 288.529 64.1265C288.648 64.3401 288.8 64.484 288.983 64.5582C289.17 64.6279 289.367 64.6628 289.575 64.6628C289.73 64.6628 289.857 64.654 289.958 64.6367C290.057 64.6148 290.137 64.5974 290.196 64.5844L290.483 65.9709C290.387 66.0102 290.254 66.0494 290.083 66.0887C289.911 66.1323 289.694 66.1541 289.431 66.1541C289.033 66.1541 288.642 66.0604 288.259 65.8729C287.881 65.6854 287.566 65.3998 287.314 65.016C287.067 64.6323 286.944 64.1482 286.944 63.564V53.5698ZM303.678 58.2268L302.41 58.6191C302.33 58.3881 302.213 58.1635 302.057 57.9455C301.906 57.7231 301.699 57.54 301.436 57.396C301.173 57.2522 300.837 57.1802 300.425 57.1802C299.864 57.1802 299.396 57.3219 299.021 57.6054C298.65 57.8845 298.464 58.2398 298.464 58.6714C298.464 59.0552 298.593 59.3583 298.847 59.5807C299.102 59.803 299.501 59.9884 300.043 60.1366L301.406 60.5029C302.227 60.7209 302.839 61.0545 303.241 61.5036C303.644 61.9484 303.845 62.5218 303.845 63.2238C303.845 63.7994 303.694 64.314 303.391 64.7675C303.092 65.2209 302.674 65.5785 302.135 65.8402C301.598 66.1017 300.972 66.2326 300.258 66.2326C299.321 66.2326 298.546 66.0102 297.932 65.5654C297.319 65.1207 296.93 64.4709 296.766 63.6163L298.106 63.25C298.233 63.7907 298.475 64.1963 298.829 64.4665C299.188 64.7369 299.656 64.8721 300.234 64.8721C300.892 64.8721 301.414 64.7195 301.801 64.4142C302.191 64.1046 302.387 63.734 302.387 63.3023C302.387 62.9535 302.275 62.6613 302.052 62.4259C301.829 62.1861 301.485 62.0072 301.023 61.8895L299.493 61.4971C298.652 61.2791 298.035 60.9411 297.64 60.4833C297.249 60.0211 297.053 59.4433 297.053 58.75C297.053 58.1831 297.199 57.6816 297.491 57.2456C297.785 56.8096 298.186 56.4673 298.692 56.2187C299.202 55.9702 299.78 55.8459 300.425 55.8459C301.334 55.8459 302.048 56.0639 302.566 56.5C303.088 56.936 303.458 57.5116 303.678 58.2268ZM309.7 66.2326C308.871 66.2326 308.143 66.0167 307.517 65.585C306.896 65.1534 306.41 64.5494 306.059 63.7732C305.712 62.9971 305.539 62.0901 305.539 61.0524C305.539 60.0058 305.712 59.0923 306.059 58.3118C306.41 57.5312 306.896 56.9251 307.517 56.4935C308.143 56.0617 308.871 55.8459 309.7 55.8459C310.529 55.8459 311.254 56.0617 311.876 56.4935C312.502 56.9251 312.988 57.5312 313.335 58.3118C313.686 59.0923 313.861 60.0058 313.861 61.0524C313.861 62.0901 313.686 62.9971 313.335 63.7732C312.988 64.5494 312.502 65.1534 311.876 65.585C311.254 66.0167 310.529 66.2326 309.7 66.2326ZM309.7 64.8459C310.329 64.8459 310.847 64.6694 311.254 64.3161C311.661 63.963 311.961 63.4986 312.157 62.923C312.352 62.3474 312.45 61.7238 312.45 61.0524C312.45 60.3808 312.352 59.7551 312.157 59.1751C311.961 58.5952 311.661 58.1264 311.254 57.7689C310.847 57.4114 310.329 57.2325 309.7 57.2325C309.07 57.2325 308.551 57.4114 308.146 57.7689C307.739 58.1264 307.438 58.5952 307.242 59.1751C307.047 59.7551 306.95 60.3808 306.95 61.0524C306.95 61.7238 307.047 62.3474 307.242 62.923C307.438 63.4986 307.739 63.963 308.146 64.3161C308.551 64.6694 309.07 64.8459 309.7 64.8459ZM320.104 55.9767V57.2849H315.153V55.9767H320.104ZM316.636 66.0233V54.59C316.636 54.0145 316.759 53.5348 317.007 53.1511C317.254 52.7674 317.575 52.4796 317.969 52.2877C318.364 52.0959 318.781 52 319.219 52C319.566 52 319.849 52.0305 320.068 52.0915C320.287 52.1526 320.451 52.2092 320.558 52.2615L320.152 53.5959C320.08 53.5698 319.98 53.5371 319.853 53.4978C319.729 53.4585 319.566 53.4389 319.363 53.4389C318.897 53.4389 318.56 53.5675 318.353 53.8248C318.149 54.0821 318.047 54.4592 318.047 54.9564V66.0233H316.636ZM326.075 55.9767V57.2849H321.316V55.9767H326.075ZM322.703 53.5698H324.114V63.1453C324.114 63.5814 324.172 63.9084 324.287 64.1265C324.407 64.3401 324.558 64.484 324.742 64.5582C324.929 64.6279 325.126 64.6628 325.333 64.6628C325.489 64.6628 325.616 64.654 325.717 64.6367C325.816 64.6148 325.896 64.5974 325.955 64.5844L326.242 65.9709C326.147 66.0102 326.013 66.0494 325.842 66.0887C325.67 66.1323 325.453 66.1541 325.19 66.1541C324.792 66.1541 324.401 66.0604 324.019 65.8729C323.64 65.6854 323.325 65.3998 323.074 65.016C322.827 64.6323 322.703 64.1482 322.703 63.564V53.5698ZM330.278 66.0233L327.48 55.9767H328.962L330.947 63.6686H331.043L333.004 55.9767H334.51L336.448 63.6424H336.544L338.529 55.9767H340.011L337.213 66.0233H335.826L333.817 58.3052H333.674L331.665 66.0233H330.278ZM344.578 66.2588C343.997 66.2588 343.469 66.1388 342.994 65.899C342.52 65.6548 342.143 65.3038 341.864 64.8459C341.585 64.3838 341.446 63.8256 341.446 63.1715C341.446 62.5959 341.55 62.1294 341.757 61.7718C341.964 61.4099 342.241 61.1264 342.588 60.9215C342.935 60.7166 343.317 60.5639 343.735 60.4637C344.158 60.359 344.583 60.2762 345.009 60.2151C345.567 60.1366 346.019 60.0778 346.366 60.0385C346.717 59.9949 346.971 59.923 347.131 59.8226C347.294 59.7224 347.376 59.548 347.376 59.2995V59.247C347.376 58.6018 347.215 58.1003 346.893 57.7427C346.573 57.3852 346.089 57.2064 345.44 57.2064C344.766 57.2064 344.237 57.3677 343.855 57.6904C343.472 58.0131 343.203 58.3575 343.048 58.7239L341.708 58.2006C341.948 57.5901 342.266 57.1148 342.666 56.7747C343.068 56.4302 343.507 56.1904 343.981 56.0552C344.459 55.9156 344.929 55.8459 345.391 55.8459C345.687 55.8459 346.025 55.8852 346.408 55.9637C346.794 56.0377 347.167 56.1925 347.526 56.4281C347.889 56.6635 348.189 57.0189 348.429 57.4941C348.668 57.9695 348.787 58.6061 348.787 59.4041V66.0233H347.376V64.6628H347.305C347.209 64.8809 347.049 65.1142 346.827 65.3627C346.603 65.6112 346.307 65.8227 345.935 65.9971C345.565 66.1715 345.113 66.2588 344.578 66.2588ZM344.793 64.8721C345.351 64.8721 345.822 64.7522 346.205 64.5124C346.591 64.2725 346.882 63.963 347.077 63.5836C347.277 63.2042 347.376 62.8053 347.376 62.3866V60.9738C347.317 61.0524 347.185 61.1243 346.982 61.1897C346.783 61.2507 346.552 61.3053 346.288 61.3532C346.029 61.3968 345.777 61.4361 345.529 61.4709C345.285 61.5015 345.089 61.5276 344.937 61.5494C344.571 61.6018 344.228 61.6868 343.909 61.8045C343.594 61.9178 343.339 62.0901 343.144 62.3212C342.952 62.548 342.857 62.8576 342.857 63.25C342.857 63.7863 343.038 64.1919 343.401 64.4665C343.768 64.7369 344.232 64.8721 344.793 64.8721ZM351.363 66.0233V55.9767H352.726V57.4941H352.821C352.988 56.9971 353.292 56.5937 353.73 56.2841C354.168 55.9745 354.662 55.8198 355.213 55.8198C355.317 55.8198 355.446 55.8219 355.601 55.8263C355.757 55.8306 355.875 55.8372 355.954 55.8459V57.4156C355.906 57.4026 355.797 57.3829 355.625 57.3568C355.458 57.3262 355.281 57.311 355.093 57.311C354.647 57.311 354.248 57.4135 353.897 57.6185C353.551 57.8191 353.275 58.0981 353.073 58.4556C352.873 58.8089 352.774 59.2122 352.774 59.6657V66.0233H351.363ZM361.197 66.2326C360.313 66.2326 359.549 66.019 358.908 65.5916C358.27 65.1599 357.778 64.5582 357.431 63.7863C357.088 63.0102 356.916 62.1076 356.916 61.0785C356.916 60.0495 357.088 59.1424 357.431 58.3575C357.778 57.5683 358.26 56.9535 358.877 56.5131C359.499 56.0683 360.224 55.8459 361.053 55.8459C361.532 55.8459 362.004 55.9331 362.471 56.1075C362.937 56.2819 363.361 56.5654 363.744 56.9579C364.126 57.346 364.432 57.8604 364.658 58.5014C364.886 59.1424 365 59.9316 365 60.8692V61.5232H357.921V60.1889H363.565C363.565 59.622 363.461 59.1162 363.254 58.6714C363.05 58.2268 362.76 57.8757 362.381 57.6185C362.006 57.3612 361.564 57.2325 361.053 57.2325C360.492 57.2325 360.005 57.3852 359.595 57.6904C359.188 57.9912 358.875 58.3837 358.656 58.8677C358.437 59.3518 358.328 59.8706 358.328 60.4244V61.314C358.328 62.0726 358.447 62.7159 358.686 63.2434C358.929 63.7667 359.266 64.1657 359.697 64.4404C360.127 64.7108 360.627 64.8459 361.197 64.8459C361.568 64.8459 361.903 64.7892 362.202 64.6759C362.504 64.5582 362.765 64.3838 362.984 64.1526C363.204 63.9172 363.373 63.625 363.493 63.2761L364.856 63.6948C364.712 64.2006 364.472 64.6454 364.133 65.029C363.794 65.4084 363.375 65.705 362.877 65.9186C362.379 66.1279 361.819 66.2326 361.197 66.2326Z" fill="white"/>
</g>
<defs>
<filter id="filter0_d_40_5" x="0" y="0" width="369" height="78" filterUnits="userSpaceOnUse" color-interpolation-filters="sRGB">
<feFlood flood-opacity="0" result="BackgroundImageFix"/>
<feColorMatrix in="SourceAlpha" type="matrix" values="0 0 0 0 0 0 0 0 0 0 0 0 0 0 0 0 0 0 127 0" result="hardAlpha"/>
<feOffset dy="4"/>
<feGaussianBlur stdDeviation="2"/>
<feComposite in2="hardAlpha" operator="out"/>
<feColorMatrix type="matrix" values="0 0 0 0 0 0 0 0 0 0 0 0 0 0 0 0 0 0 0.25 0"/>
<feBlend mode="normal" in2="BackgroundImageFix" result="effect1_dropShadow_40_5"/>
<feBlend mode="normal" in="SourceGraphic" in2="effect1_dropShadow_40_5" result="shape"/>
</filter>
</defs>
</svg>
