<svg width="308" height="78" viewBox="0 0 308 78" fill="none" xmlns="http://www.w3.org/2000/svg">
<g filter="url(#filter0_d_90_47)">
<path d="M25.9174 10.9529L37.1656 0L49.9025 12.8471L29.8873 36.9765L25.9174 10.9529Z" fill="#0073FB" fill-opacity="0.85"/>
<path d="M25.9173 41.4235L21.203 15.4L4 32.9411V68.5177L25.9173 41.4235Z" fill="#0073FB" fill-opacity="0.85"/>
<path d="M9.54141 70L37.1656 35.4942L46.925 70H9.54141Z" fill="#0073FB" fill-opacity="0.85"/>
<path d="M45.8497 47.1058L41.6317 31.4588L53.2934 16.6353L70.0829 32.9411V41.4235L45.8497 47.1058Z" fill="#0073FB" fill-opacity="0.85"/>
<path d="M51.97 70L46.9249 52.6235L70.0829 47.1059V70H51.97Z" fill="#0073FB" fill-opacity="0.85"/>
<path d="M89.2333 33.8424V15.521H97.003C98.4968 15.521 99.7691 15.7864 100.821 16.3172C101.872 16.842 102.673 17.5726 103.225 18.5089C103.782 19.4393 104.061 20.5128 104.061 21.7295C104.061 22.9462 103.779 24.0196 103.215 24.9501C102.65 25.8804 101.833 26.6051 100.763 27.124C99.6985 27.6428 98.4097 27.9023 96.8973 27.9023H91.9453V24.798H96.2238C97.0256 24.798 97.6854 24.6697 98.2046 24.4133C98.7307 24.1509 99.1216 23.7901 99.3782 23.3308C99.6408 22.8656 99.7725 22.3319 99.7725 21.7295C99.7725 21.1212 99.6408 20.5903 99.3782 20.1371C99.1216 19.6779 98.7307 19.323 98.2046 19.0726C97.6792 18.8161 97.0126 18.6878 96.2046 18.6878H93.3973V33.8424H89.2333ZM114.889 33.8424V15.521H119.053V30.6487H127.495V33.8424H114.889ZM142.272 33.8424H137.811L144.609 15.521H149.975L156.763 33.8424H152.302L147.369 19.7077H147.215L142.272 33.8424ZM141.994 26.6409H152.532V29.6646H141.994V26.6409ZM183.729 15.521V33.8424H180.133L171.565 22.311H171.421V33.8424H167.257V15.521H170.911L179.411 27.0434H179.585V15.521H183.729Z" fill="#0073FB" fill-opacity="0.85"/>
<path d="M195.965 33.8424V15.521H202.85C204.222 15.521 205.354 15.7417 206.245 16.183C207.136 16.6183 207.799 17.2058 208.235 17.9453C208.671 18.6789 208.889 19.493 208.889 20.3876C208.889 21.1749 208.739 21.825 208.437 22.3379C208.142 22.8507 207.751 23.2563 207.264 23.5545C206.783 23.8527 206.26 24.0734 205.697 24.2165V24.3954C206.299 24.4312 206.905 24.628 207.514 24.9859C208.123 25.3437 208.632 25.8566 209.043 26.5245C209.453 27.1925 209.658 28.0096 209.658 28.9757C209.658 29.8942 209.434 30.7202 208.985 31.4538C208.536 32.1874 207.828 32.7689 206.86 33.1983C205.892 33.6276 204.632 33.8424 203.081 33.8424H195.965ZM198.35 31.8743H203.081C204.639 31.8743 205.745 31.5939 206.398 31.0333C207.059 30.4667 207.389 29.7809 207.389 28.9757C207.389 28.3555 207.219 27.7829 206.879 27.2582C206.54 26.7273 206.055 26.3039 205.427 25.9878C204.799 25.6658 204.055 25.5047 203.197 25.5047H198.35V31.8743ZM198.35 23.5724H202.773C203.492 23.5724 204.139 23.4411 204.716 23.1788C205.299 22.9164 205.76 22.5466 206.101 22.0695C206.446 21.5923 206.62 21.0317 206.62 20.3876C206.62 19.5825 206.318 18.8996 205.716 18.339C205.113 17.7724 204.158 17.4891 202.85 17.4891H198.35V23.5724ZM234.624 15.521H237.008V27.6517C237.008 28.9042 236.691 30.0224 236.056 31.0065C235.428 31.9846 234.541 32.7569 233.393 33.3235C232.246 33.8841 230.899 34.1644 229.354 34.1644C227.809 34.1644 226.463 33.8841 225.316 33.3235C224.168 32.7569 223.277 31.9846 222.643 31.0065C222.014 30.0224 221.7 28.9042 221.7 27.6517V15.521H224.085V27.4728C224.085 28.3674 224.296 29.1636 224.719 29.8614C225.143 30.5533 225.745 31.099 226.527 31.4985C227.316 31.8921 228.258 32.089 229.354 32.089C230.451 32.089 231.392 31.8921 232.181 31.4985C232.97 31.099 233.572 30.5533 233.989 29.8614C234.412 29.1636 234.624 28.3674 234.624 27.4728V15.521ZM252.279 15.521V33.8424H249.894V15.521H252.279ZM265.183 33.8424V15.521H267.568V31.8743H276.722V33.8424H265.183ZM294.615 33.8424H288.538V15.521H294.885C296.795 15.521 298.429 15.8878 299.789 16.6213C301.147 17.349 302.189 18.3957 302.914 19.7614C303.638 21.1212 304 22.7494 304 24.6459C304 26.5544 303.635 28.1974 302.904 29.5751C302.174 30.9468 301.109 32.0025 299.712 32.742C298.314 33.4756 296.615 33.8424 294.615 33.8424ZM290.923 31.8743H294.462C296.09 31.8743 297.439 31.582 298.51 30.9976C299.58 30.4131 300.379 29.5811 300.904 28.5016C301.429 27.4221 301.693 26.1369 301.693 24.6459C301.693 23.1668 301.433 21.8935 300.914 20.8259C300.394 19.7525 299.619 18.9294 298.586 18.3569C297.555 17.7784 296.27 17.4891 294.73 17.4891H290.923V31.8743Z" fill="black"/>
<path d="M95.8959 50.9334H94.8005C94.736 50.6402 94.6222 50.3828 94.4603 50.1609C94.3012 49.939 94.1071 49.7527 93.8773 49.602C93.651 49.4486 93.3993 49.3336 93.1222 49.2568C92.8451 49.1801 92.557 49.1418 92.2566 49.1418C91.7086 49.1418 91.2127 49.2705 90.7682 49.5281C90.3265 49.7856 89.9747 50.165 89.7127 50.6663C89.4534 51.1676 89.3238 51.7826 89.3238 52.5113C89.3238 53.24 89.4534 53.855 89.7127 54.3563C89.9747 54.8576 90.3265 55.237 90.7682 55.4945C91.2127 55.752 91.7086 55.8808 92.2566 55.8808C92.557 55.8808 92.8451 55.8424 93.1222 55.7657C93.3993 55.689 93.651 55.5753 93.8773 55.4247C94.1071 55.2713 94.3012 55.0836 94.4603 54.8617C94.6222 54.6371 94.736 54.3796 94.8005 54.0892H95.8959C95.8136 54.5193 95.6634 54.9042 95.4452 55.2438C95.2278 55.5836 94.9569 55.8726 94.6325 56.1109C94.3087 56.3465 93.9452 56.5259 93.5419 56.6492C93.1414 56.7725 92.7127 56.8341 92.2566 56.8341C91.485 56.8341 90.7991 56.6588 90.1983 56.3081C89.5975 55.9575 89.1249 55.4589 88.7806 54.8124C88.4363 54.1659 88.2634 53.3989 88.2634 52.5113C88.2634 51.6237 88.4363 50.8567 88.7806 50.2102C89.1249 49.5637 89.5975 49.0651 90.1983 48.7144C90.7991 48.3638 91.485 48.1884 92.2566 48.1884C92.7127 48.1884 93.1414 48.2501 93.5419 48.3734C93.9452 48.4967 94.3087 48.6775 94.6325 48.9158C94.9569 49.1514 95.2278 49.439 95.4452 49.7787C95.6634 50.1157 95.8136 50.5006 95.8959 50.9334ZM100.281 56.8505C99.6682 56.8505 99.1312 56.7149 98.6689 56.4437C98.2093 56.1725 97.8499 55.7931 97.5907 55.3055C97.3348 54.8179 97.2066 54.2481 97.2066 53.5961C97.2066 52.9386 97.3348 52.3647 97.5907 51.8744C97.8499 51.384 98.2093 51.0033 98.6689 50.7321C99.1312 50.4608 99.6682 50.3252 100.281 50.3252C100.893 50.3252 101.429 50.4608 101.888 50.7321C102.351 51.0033 102.71 51.384 102.966 51.8744C103.225 52.3647 103.355 52.9386 103.355 53.5961C103.355 54.2481 103.225 54.8179 102.966 55.3055C102.71 55.7931 102.351 56.1725 101.888 56.4437C101.429 56.7149 100.893 56.8505 100.281 56.8505ZM100.281 55.9794C100.746 55.9794 101.128 55.8685 101.429 55.6465C101.729 55.4247 101.951 55.1329 102.096 54.7713C102.24 54.4097 102.312 54.018 102.312 53.5961C102.312 53.1742 102.24 52.7811 102.096 52.4168C101.951 52.0524 101.729 51.7579 101.429 51.5333C101.128 51.3087 100.746 51.1963 100.281 51.1963C99.8157 51.1963 99.4329 51.3087 99.1325 51.5333C98.8321 51.7579 98.6099 52.0524 98.4652 52.4168C98.3211 52.7811 98.2491 53.1742 98.2491 53.5961C98.2491 54.018 98.3211 54.4097 98.4652 54.7713C98.6099 55.1329 98.8321 55.4247 99.1325 55.6465C99.4329 55.8685 99.8157 55.9794 100.281 55.9794ZM105.989 52.9222V56.7191H104.946V50.4074H105.953V51.3936H106.041C106.2 51.0731 106.442 50.8156 106.766 50.6211C107.089 50.4239 107.508 50.3252 108.02 50.3252C108.48 50.3252 108.882 50.4129 109.226 50.5882C109.57 50.7608 109.838 51.0238 110.03 51.3772C110.221 51.7278 110.316 52.1716 110.316 52.7085V56.7191H109.275V52.7742C109.275 52.2784 109.136 51.8922 108.859 51.6155C108.583 51.3361 108.203 51.1963 107.72 51.1963C107.387 51.1963 107.089 51.2635 106.827 51.3977C106.568 51.5319 106.364 51.7278 106.214 51.9853C106.063 52.2428 105.989 52.5551 105.989 52.9222ZM117.027 51.821L116.091 52.0675C116.032 51.9223 115.945 51.7812 115.83 51.6443C115.718 51.5045 115.565 51.3895 115.371 51.2991C115.177 51.2087 114.928 51.1635 114.624 51.1635C114.209 51.1635 113.863 51.2525 113.586 51.4306C113.312 51.6059 113.175 51.8292 113.175 52.1003C113.175 52.3414 113.27 52.5318 113.458 52.6716C113.646 52.8113 113.941 52.9277 114.341 53.0208L115.349 53.2509C115.955 53.3879 116.407 53.5975 116.705 53.8796C117.002 54.1591 117.151 54.5193 117.151 54.9603C117.151 55.3219 117.039 55.6452 116.815 55.9301C116.594 56.215 116.285 56.4396 115.887 56.604C115.49 56.7683 115.028 56.8505 114.5 56.8505C113.808 56.8505 113.236 56.7108 112.782 56.4314C112.329 56.152 112.042 55.7438 111.921 55.2069L112.91 54.9768C113.004 55.3165 113.183 55.5712 113.445 55.741C113.71 55.9109 114.056 55.9958 114.483 55.9958C114.969 55.9958 115.354 55.8999 115.64 55.7082C115.928 55.5137 116.073 55.2808 116.073 55.0097C116.073 54.7905 115.991 54.6069 115.825 54.459C115.661 54.3084 115.408 54.196 115.066 54.122L113.935 53.8756C113.314 53.7385 112.858 53.5263 112.566 53.2386C112.277 52.9483 112.133 52.5852 112.133 52.1497C112.133 51.7935 112.24 51.4785 112.456 51.2046C112.673 50.9306 112.969 50.7156 113.343 50.5595C113.72 50.4033 114.147 50.3252 114.624 50.3252C115.295 50.3252 115.823 50.4622 116.205 50.7361C116.591 51.0101 116.865 51.3717 117.027 51.821ZM121.67 50.4074V51.2293H118.154V50.4074H121.67ZM119.179 48.8953H120.221V54.911C120.221 55.1849 120.264 55.3904 120.349 55.5274C120.438 55.6616 120.55 55.752 120.685 55.7986C120.823 55.8424 120.969 55.8643 121.122 55.8643C121.237 55.8643 121.332 55.8588 121.405 55.8479C121.478 55.8342 121.537 55.8232 121.582 55.8151L121.794 56.6861C121.723 56.7108 121.624 56.7355 121.498 56.7602C121.371 56.7875 121.211 56.8013 121.016 56.8013C120.722 56.8013 120.433 56.7424 120.151 56.6246C119.871 56.5068 119.638 56.3273 119.453 56.0863C119.271 55.8452 119.179 55.5411 119.179 55.174V48.8953ZM123.238 56.7191V50.4074H124.245V51.3607H124.316C124.439 51.0484 124.663 50.795 124.987 50.6005C125.311 50.406 125.676 50.3088 126.083 50.3088C126.159 50.3088 126.255 50.3101 126.369 50.3129C126.485 50.3156 126.571 50.3198 126.63 50.3252V51.3114C126.595 51.3032 126.513 51.2908 126.387 51.2744C126.264 51.2552 126.133 51.2457 125.994 51.2457C125.664 51.2457 125.37 51.3101 125.111 51.4388C124.854 51.5648 124.651 51.7401 124.501 51.9647C124.354 52.1867 124.28 52.4401 124.28 52.725V56.7191H123.238ZM132.141 54.1385V50.4074H133.184V56.7191H132.141V55.6507H132.07C131.911 55.9712 131.664 56.2437 131.328 56.4684C130.993 56.6903 130.569 56.8013 130.057 56.8013C129.632 56.8013 129.256 56.7149 128.926 56.5424C128.596 56.367 128.336 56.1041 128.149 55.7534C127.96 55.4 127.866 54.9548 127.866 54.4179V50.4074H128.908V54.3522C128.908 54.8124 129.046 55.1795 129.323 55.4535C129.603 55.7274 129.959 55.8643 130.392 55.8643C130.651 55.8643 130.915 55.8027 131.183 55.6794C131.454 55.5562 131.68 55.3671 131.863 55.1124C132.048 54.8576 132.141 54.533 132.141 54.1385ZM137.849 56.8505C137.212 56.8505 136.665 56.7108 136.206 56.4314C135.746 56.152 135.393 55.7671 135.146 55.2768C134.898 54.7864 134.775 54.2262 134.775 53.5961C134.775 52.9551 134.901 52.3894 135.154 51.899C135.411 51.406 135.767 51.0211 136.223 50.7444C136.683 50.4649 137.219 50.3252 137.831 50.3252C138.308 50.3252 138.738 50.4074 139.121 50.5718C139.503 50.7361 139.817 50.9662 140.062 51.2621C140.306 51.558 140.457 51.9031 140.516 52.2976H139.474C139.395 52.01 139.218 51.7552 138.944 51.5333C138.673 51.3087 138.308 51.1963 137.849 51.1963C137.442 51.1963 137.086 51.295 136.78 51.4922C136.476 51.6867 136.239 51.962 136.068 52.3181C135.901 52.6716 135.817 53.0866 135.817 53.5632C135.817 54.0508 135.9 54.4754 136.064 54.837C136.232 55.1987 136.468 55.4795 136.771 55.6794C137.077 55.8794 137.437 55.9794 137.849 55.9794C138.12 55.9794 138.365 55.9355 138.586 55.8479C138.807 55.7603 138.994 55.6342 139.147 55.4699C139.3 55.3055 139.409 55.1082 139.474 54.8781H140.516C140.457 55.2507 140.312 55.5863 140.079 55.8849C139.85 56.1808 139.544 56.4164 139.165 56.5916C138.788 56.7642 138.349 56.8505 137.849 56.8505ZM144.99 50.4074V51.2293H141.475V50.4074H144.99ZM142.5 48.8953H143.542V54.911C143.542 55.1849 143.585 55.3904 143.67 55.5274C143.758 55.6616 143.87 55.752 144.005 55.7986C144.144 55.8424 144.29 55.8643 144.443 55.8643C144.557 55.8643 144.652 55.8588 144.726 55.8479C144.799 55.8342 144.858 55.8232 144.902 55.8151L145.114 56.6861C145.044 56.7108 144.945 56.7355 144.818 56.7602C144.692 56.7875 144.531 56.8013 144.337 56.8013C144.042 56.8013 143.754 56.7424 143.471 56.6246C143.191 56.5068 142.959 56.3273 142.774 56.0863C142.591 55.8452 142.5 55.5411 142.5 55.174V48.8953ZM146.559 56.7191V50.4074H147.601V56.7191H146.559ZM147.088 49.3555C146.885 49.3555 146.71 49.2911 146.563 49.1623C146.419 49.0336 146.346 48.8788 146.346 48.698C146.346 48.5172 146.419 48.3625 146.563 48.2337C146.71 48.1049 146.885 48.0405 147.088 48.0405C147.292 48.0405 147.466 48.1049 147.61 48.2337C147.757 48.3625 147.831 48.5172 147.831 48.698C147.831 48.8788 147.757 49.0336 147.61 49.1623C147.466 49.2911 147.292 49.3555 147.088 49.3555ZM152.266 56.8505C151.654 56.8505 151.117 56.7149 150.654 56.4437C150.195 56.1725 149.835 55.7931 149.576 55.3055C149.32 54.8179 149.192 54.2481 149.192 53.5961C149.192 52.9386 149.32 52.3647 149.576 51.8744C149.835 51.384 150.195 51.0033 150.654 50.7321C151.117 50.4608 151.654 50.3252 152.266 50.3252C152.879 50.3252 153.414 50.4608 153.874 50.7321C154.336 51.0033 154.695 51.384 154.951 51.8744C155.211 52.3647 155.34 52.9386 155.34 53.5961C155.34 54.2481 155.211 54.8179 154.951 55.3055C154.695 55.7931 154.336 56.1725 153.874 56.4437C153.414 56.7149 152.879 56.8505 152.266 56.8505ZM152.266 55.9794C152.731 55.9794 153.114 55.8685 153.414 55.6465C153.715 55.4247 153.937 55.1329 154.082 54.7713C154.226 54.4097 154.298 54.018 154.298 53.5961C154.298 53.1742 154.226 52.7811 154.082 52.4168C153.937 52.0524 153.715 51.7579 153.414 51.5333C153.114 51.3087 152.731 51.1963 152.266 51.1963C151.801 51.1963 151.418 51.3087 151.118 51.5333C150.817 51.7579 150.595 52.0524 150.451 52.4168C150.307 52.7811 150.235 53.1742 150.235 53.5961C150.235 54.018 150.307 54.4097 150.451 54.7713C150.595 55.1329 150.817 55.4247 151.118 55.6465C151.418 55.8685 151.801 55.9794 152.266 55.9794ZM157.974 52.9222V56.7191H156.931V50.4074H157.938V51.3936H158.027C158.186 51.0731 158.427 50.8156 158.751 50.6211C159.075 50.4239 159.493 50.3252 160.006 50.3252C160.465 50.3252 160.867 50.4129 161.211 50.5882C161.556 50.7608 161.824 51.0238 162.015 51.3772C162.206 51.7278 162.303 52.1716 162.303 52.7085V56.7191H161.26V52.7742C161.26 52.2784 161.121 51.8922 160.844 51.6155C160.568 51.3361 160.188 51.1963 159.705 51.1963C159.372 51.1963 159.075 51.2635 158.813 51.3977C158.553 51.5319 158.349 51.7278 158.199 51.9853C158.049 52.2428 157.974 52.5551 157.974 52.9222ZM167.705 56.7191V50.4074H168.712V51.3936H168.801C168.942 51.0567 169.17 50.795 169.485 50.6088C169.8 50.4198 170.178 50.3252 170.62 50.3252C171.067 50.3252 171.44 50.4198 171.737 50.6088C172.038 50.795 172.272 51.0567 172.44 51.3936H172.51C172.684 51.0676 172.945 50.8088 173.292 50.617C173.639 50.4225 174.056 50.3252 174.542 50.3252C175.149 50.3252 175.645 50.5019 176.03 50.8553C176.416 51.206 176.609 51.7524 176.609 52.4949V56.7191H175.567V52.4949C175.567 52.0291 175.43 51.6963 175.156 51.4963C174.882 51.2963 174.56 51.1963 174.189 51.1963C173.712 51.1963 173.342 51.3306 173.08 51.599C172.818 51.8648 172.687 52.2017 172.687 52.6099V56.7191H171.627V52.3962C171.627 52.0374 171.502 51.7484 171.252 51.5292C171.001 51.3073 170.679 51.1963 170.284 51.1963C170.014 51.1963 169.76 51.2635 169.525 51.3977C169.292 51.5319 169.104 51.7182 168.96 51.9566C168.818 52.1922 168.748 52.4647 168.748 52.7742V56.7191H167.705ZM180.511 56.867C180.082 56.867 179.692 56.7916 179.341 56.641C178.991 56.4876 178.712 56.267 178.506 55.9794C178.3 55.689 178.197 55.3384 178.197 54.9275C178.197 54.5658 178.274 54.2728 178.427 54.0481C178.58 53.8207 178.785 53.6426 179.041 53.5139C179.297 53.3852 179.58 53.2893 179.888 53.2263C180.2 53.1606 180.515 53.1085 180.829 53.0701C181.242 53.0208 181.576 52.9839 181.832 52.9592C182.091 52.9318 182.279 52.8866 182.397 52.8236C182.518 52.7606 182.578 52.651 182.578 52.4949V52.462C182.578 52.0566 182.459 51.7415 182.221 51.5169C181.985 51.2923 181.627 51.1799 181.148 51.1799C180.65 51.1799 180.259 51.2813 179.977 51.484C179.694 51.6867 179.495 51.9031 179.381 52.1333L178.391 51.8045C178.568 51.421 178.803 51.1224 179.098 50.9087C179.395 50.6923 179.72 50.5416 180.069 50.4567C180.423 50.369 180.77 50.3252 181.112 50.3252C181.33 50.3252 181.58 50.3499 181.863 50.3992C182.148 50.4457 182.424 50.543 182.689 50.691C182.957 50.8389 183.179 51.0621 183.356 51.3607C183.532 51.6594 183.621 52.0593 183.621 52.5606V56.7191H182.578V55.8643H182.526C182.455 56.0013 182.337 56.1479 182.172 56.304C182.007 56.4602 181.788 56.593 181.514 56.7026C181.24 56.8122 180.906 56.867 180.511 56.867ZM180.67 55.9958C181.083 55.9958 181.43 55.9205 181.713 55.7698C181.998 55.6192 182.214 55.4247 182.358 55.1863C182.505 54.948 182.578 54.6974 182.578 54.4343V53.5468C182.535 53.5961 182.437 53.6413 182.287 53.6824C182.139 53.7207 181.969 53.755 181.775 53.7851C181.583 53.8125 181.396 53.8372 181.214 53.8591C181.034 53.8783 180.888 53.8947 180.777 53.9084C180.506 53.9413 180.253 53.9947 180.017 54.0686C179.784 54.1399 179.596 54.2481 179.452 54.3932C179.31 54.5357 179.24 54.7302 179.24 54.9768C179.24 55.3137 179.373 55.5685 179.641 55.741C179.912 55.9109 180.255 55.9958 180.67 55.9958ZM186.565 52.9222V56.7191H185.524V50.4074H186.53V51.3936H186.619C186.778 51.0731 187.019 50.8156 187.343 50.6211C187.667 50.4239 188.085 50.3252 188.598 50.3252C189.057 50.3252 189.458 50.4129 189.803 50.5882C190.148 50.7608 190.416 51.0238 190.607 51.3772C190.799 51.7278 190.894 52.1716 190.894 52.7085V56.7191H189.852V52.7742C189.852 52.2784 189.714 51.8922 189.437 51.6155C189.16 51.3361 188.78 51.1963 188.297 51.1963C187.965 51.1963 187.667 51.2635 187.405 51.3977C187.146 51.5319 186.941 51.7278 186.791 51.9853C186.641 52.2428 186.565 52.5551 186.565 52.9222ZM194.795 56.867C194.365 56.867 193.975 56.7916 193.625 56.641C193.275 56.4876 192.996 56.267 192.79 55.9794C192.584 55.689 192.481 55.3384 192.481 54.9275C192.481 54.5658 192.557 54.2728 192.711 54.0481C192.864 53.8207 193.068 53.6426 193.325 53.5139C193.581 53.3852 193.863 53.2893 194.172 53.2263C194.485 53.1606 194.798 53.1085 195.114 53.0701C195.526 53.0208 195.86 52.9839 196.116 52.9592C196.375 52.9318 196.563 52.8866 196.681 52.8236C196.802 52.7606 196.862 52.651 196.862 52.4949V52.462C196.862 52.0566 196.743 51.7415 196.504 51.5169C196.269 51.2923 195.911 51.1799 195.431 51.1799C194.934 51.1799 194.544 51.2813 194.261 51.484C193.978 51.6867 193.779 51.9031 193.665 52.1333L192.675 51.8045C192.852 51.421 193.087 51.1224 193.382 50.9087C193.679 50.6923 194.003 50.5416 194.354 50.4567C194.707 50.369 195.055 50.3252 195.396 50.3252C195.614 50.3252 195.864 50.3499 196.147 50.3992C196.432 50.4457 196.707 50.543 196.973 50.691C197.24 50.8389 197.463 51.0621 197.64 51.3607C197.817 51.6594 197.905 52.0593 197.905 52.5606V56.7191H196.862V55.8643H196.81C196.738 56.0013 196.621 56.1479 196.456 56.304C196.291 56.4602 196.072 56.593 195.798 56.7026C195.524 56.8122 195.19 56.867 194.795 56.867ZM194.954 55.9958C195.367 55.9958 195.714 55.9205 195.997 55.7698C196.282 55.6192 196.497 55.4247 196.642 55.1863C196.788 54.948 196.862 54.6974 196.862 54.4343V53.5468C196.818 53.5961 196.721 53.6413 196.571 53.6824C196.424 53.7207 196.253 53.755 196.059 53.7851C195.867 53.8125 195.68 53.8372 195.498 53.8591C195.318 53.8783 195.172 53.8947 195.06 53.9084C194.789 53.9413 194.536 53.9947 194.301 54.0686C194.068 54.1399 193.88 54.2481 193.736 54.3932C193.594 54.5357 193.523 54.7302 193.523 54.9768C193.523 55.3137 193.657 55.5685 193.925 55.741C194.196 55.9109 194.539 55.9958 194.954 55.9958ZM202.546 59.2174C202.042 59.2174 201.609 59.1571 201.247 59.0366C200.885 58.9188 200.583 58.7627 200.342 58.5682C200.103 58.3764 199.913 58.1709 199.772 57.9518L200.603 57.4094C200.697 57.5244 200.816 57.6559 200.96 57.8038C201.105 57.9545 201.301 58.0847 201.552 58.1942C201.805 58.3065 202.136 58.3627 202.546 58.3627C203.093 58.3627 203.545 58.2394 203.902 57.9929C204.258 57.7464 204.436 57.36 204.436 56.8341V55.552H204.347C204.271 55.6671 204.162 55.8096 204.021 55.9794C203.882 56.1465 203.682 56.2958 203.42 56.4273C203.161 56.556 202.81 56.6204 202.369 56.6204C201.821 56.6204 201.33 56.4999 200.894 56.2588C200.461 56.0177 200.118 55.6671 199.865 55.2069C199.614 54.7467 199.489 54.1878 199.489 53.5303C199.489 52.8839 199.612 52.3209 199.856 51.8415C200.101 51.3594 200.44 50.9868 200.876 50.7238C201.312 50.4581 201.815 50.3252 202.387 50.3252C202.828 50.3252 203.179 50.3937 203.438 50.5307C203.7 50.6649 203.9 50.8183 204.039 50.9909C204.18 51.1607 204.288 51.3005 204.365 51.41H204.472V50.4074H205.478V56.8998C205.478 57.4422 205.346 57.8833 205.081 58.223C204.819 58.5654 204.465 58.8161 204.021 58.975C203.579 59.1366 203.088 59.2174 202.546 59.2174ZM202.51 55.7493C202.928 55.7493 203.282 55.6603 203.57 55.4822C203.859 55.3041 204.079 55.048 204.228 54.7138C204.378 54.3796 204.454 53.9796 204.454 53.5139C204.454 53.0592 204.38 52.6579 204.233 52.31C204.085 51.9621 203.868 51.6895 203.579 51.4922C203.291 51.295 202.935 51.1963 202.51 51.1963C202.068 51.1963 201.701 51.3005 201.406 51.5086C201.115 51.7168 200.895 51.9963 200.748 52.3469C200.604 52.6975 200.532 53.0866 200.532 53.5139C200.532 53.9523 200.605 54.3398 200.752 54.6768C200.902 55.011 201.123 55.274 201.415 55.4658C201.71 55.6548 202.074 55.7493 202.51 55.7493ZM210.231 56.8505C209.577 56.8505 209.013 56.7163 208.54 56.4479C208.068 56.1766 207.704 55.7986 207.448 55.3137C207.195 54.8261 207.068 54.259 207.068 53.6125C207.068 52.9661 207.195 52.3962 207.448 51.9031C207.704 51.4073 208.061 51.0211 208.517 50.7444C208.976 50.4649 209.512 50.3252 210.125 50.3252C210.479 50.3252 210.827 50.38 211.172 50.4896C211.516 50.5991 211.83 50.7772 212.112 51.0238C212.395 51.2676 212.621 51.5908 212.788 51.9935C212.956 52.3962 213.04 52.892 213.04 53.4811V53.892H207.81V53.0537H211.98C211.98 52.6975 211.903 52.3798 211.75 52.1003C211.6 51.821 211.385 51.6005 211.105 51.4388C210.828 51.2772 210.502 51.1963 210.125 51.1963C209.71 51.1963 209.35 51.2923 209.047 51.484C208.747 51.673 208.516 51.9196 208.354 52.2236C208.192 52.5277 208.111 52.8537 208.111 53.2016V53.7605C208.111 54.2371 208.199 54.6412 208.376 54.9726C208.555 55.3014 208.804 55.552 209.123 55.7246C209.44 55.8945 209.81 55.9794 210.231 55.9794C210.505 55.9794 210.752 55.9438 210.973 55.8726C211.197 55.7986 211.389 55.689 211.551 55.5438C211.713 55.3959 211.839 55.2124 211.927 54.9932L212.934 55.2562C212.828 55.574 212.65 55.8534 212.4 56.0944C212.149 56.3328 211.84 56.5191 211.472 56.6533C211.104 56.7848 210.69 56.8505 210.231 56.8505ZM214.625 56.7191V50.4074H215.633V51.3936H215.721C215.862 51.0567 216.09 50.795 216.405 50.6088C216.721 50.4198 217.099 50.3252 217.54 50.3252C217.988 50.3252 218.361 50.4198 218.658 50.6088C218.959 50.795 219.193 51.0567 219.361 51.3936H219.431C219.605 51.0676 219.865 50.8088 220.213 50.617C220.56 50.4225 220.977 50.3252 221.463 50.3252C222.069 50.3252 222.566 50.5019 222.951 50.8553C223.337 51.206 223.53 51.7524 223.53 52.4949V56.7191H222.488V52.4949C222.488 52.0291 222.35 51.6963 222.077 51.4963C221.803 51.2963 221.481 51.1963 221.11 51.1963C220.632 51.1963 220.263 51.3306 220.001 51.599C219.739 51.8648 219.608 52.2017 219.608 52.6099V56.7191H218.548V52.3962C218.548 52.0374 218.422 51.7484 218.172 51.5292C217.922 51.3073 217.599 51.1963 217.205 51.1963C216.934 51.1963 216.681 51.2635 216.445 51.3977C216.212 51.5319 216.025 51.7182 215.88 51.9566C215.739 52.1922 215.668 52.4647 215.668 52.7742V56.7191H214.625ZM228.28 56.8505C227.626 56.8505 227.062 56.7163 226.588 56.4479C226.117 56.1766 225.754 55.7986 225.497 55.3137C225.244 54.8261 225.118 54.259 225.118 53.6125C225.118 52.9661 225.244 52.3962 225.497 51.9031C225.754 51.4073 226.11 51.0211 226.566 50.7444C227.025 50.4649 227.562 50.3252 228.174 50.3252C228.527 50.3252 228.877 50.38 229.221 50.4896C229.565 50.5991 229.879 50.7772 230.162 51.0238C230.444 51.2676 230.669 51.5908 230.837 51.9935C231.005 52.3962 231.089 52.892 231.089 53.4811V53.892H225.859V53.0537H230.029C230.029 52.6975 229.953 52.3798 229.8 52.1003C229.649 51.821 229.434 51.6005 229.154 51.4388C228.878 51.2772 228.551 51.1963 228.174 51.1963C227.759 51.1963 227.4 51.2923 227.097 51.484C226.796 51.673 226.565 51.9196 226.403 52.2236C226.241 52.5277 226.16 52.8537 226.16 53.2016V53.7605C226.16 54.2371 226.248 54.6412 226.425 54.9726C226.605 55.3014 226.853 55.552 227.171 55.7246C227.49 55.8945 227.859 55.9794 228.28 55.9794C228.554 55.9794 228.801 55.9438 229.022 55.8726C229.246 55.7986 229.439 55.689 229.601 55.5438C229.763 55.3959 229.887 55.2124 229.976 54.9932L230.983 55.2562C230.877 55.574 230.699 55.8534 230.449 56.0944C230.198 56.3328 229.889 56.5191 229.521 56.6533C229.153 56.7848 228.739 56.8505 228.28 56.8505ZM233.717 52.9222V56.7191H232.675V50.4074H233.682V51.3936H233.77C233.929 51.0731 234.171 50.8156 234.495 50.6211C234.818 50.4239 235.237 50.3252 235.749 50.3252C236.208 50.3252 236.61 50.4129 236.955 50.5882C237.299 50.7608 237.567 51.0238 237.759 51.3772C237.95 51.7278 238.045 52.1716 238.045 52.7085V56.7191H237.003V52.7742C237.003 52.2784 236.865 51.8922 236.588 51.6155C236.311 51.3361 235.931 51.1963 235.449 51.1963C235.116 51.1963 234.818 51.2635 234.556 51.3977C234.297 51.5319 234.093 51.7278 233.942 51.9853C233.792 52.2428 233.717 52.5551 233.717 52.9222ZM242.901 50.4074V51.2293H239.385V50.4074H242.901ZM240.41 48.8953H241.452V54.911C241.452 55.1849 241.495 55.3904 241.58 55.5274C241.668 55.6616 241.781 55.752 241.916 55.7986C242.054 55.8424 242.2 55.8643 242.353 55.8643C242.468 55.8643 242.562 55.8588 242.636 55.8479C242.709 55.8342 242.768 55.8232 242.812 55.8151L243.024 56.6861C242.953 56.7108 242.855 56.7355 242.728 56.7602C242.602 56.7875 242.441 56.8013 242.247 56.8013C241.953 56.8013 241.664 56.7424 241.381 56.6246C241.102 56.5068 240.869 56.3273 240.683 56.0863C240.501 55.8452 240.41 55.5411 240.41 55.174V48.8953ZM252.772 51.821L251.836 52.0675C251.777 51.9223 251.69 51.7812 251.575 51.6443C251.463 51.5045 251.31 51.3895 251.116 51.2991C250.921 51.2087 250.673 51.1635 250.369 51.1635C249.954 51.1635 249.609 51.2525 249.331 51.4306C249.058 51.6059 248.921 51.8292 248.921 52.1003C248.921 52.3414 249.015 52.5318 249.203 52.6716C249.392 52.8113 249.686 52.9277 250.087 53.0208L251.093 53.2509C251.7 53.3879 252.152 53.5975 252.449 53.8796C252.747 54.1591 252.896 54.5193 252.896 54.9603C252.896 55.3219 252.784 55.6452 252.56 55.9301C252.339 56.215 252.03 56.4396 251.633 56.604C251.235 56.7683 250.773 56.8505 250.246 56.8505C249.554 56.8505 248.981 56.7108 248.528 56.4314C248.074 56.152 247.787 55.7438 247.666 55.2069L248.656 54.9768C248.75 55.3165 248.928 55.5712 249.19 55.741C249.455 55.9109 249.801 55.9958 250.228 55.9958C250.714 55.9958 251.1 55.8999 251.386 55.7082C251.674 55.5137 251.818 55.2808 251.818 55.0097C251.818 54.7905 251.735 54.6069 251.571 54.459C251.406 54.3084 251.152 54.196 250.811 54.122L249.681 53.8756C249.059 53.7385 248.603 53.5263 248.312 53.2386C248.023 52.9483 247.878 52.5852 247.878 52.1497C247.878 51.7935 247.986 51.4785 248.201 51.2046C248.419 50.9306 248.715 50.7156 249.089 50.5595C249.465 50.4033 249.892 50.3252 250.369 50.3252C251.041 50.3252 251.568 50.4622 251.951 50.7361C252.336 51.0101 252.61 51.3717 252.772 51.821ZM257.221 56.8505C256.609 56.8505 256.071 56.7149 255.609 56.4437C255.15 56.1725 254.79 55.7931 254.531 55.3055C254.275 54.8179 254.147 54.2481 254.147 53.5961C254.147 52.9386 254.275 52.3647 254.531 51.8744C254.79 51.384 255.15 51.0033 255.609 50.7321C256.071 50.4608 256.609 50.3252 257.221 50.3252C257.834 50.3252 258.369 50.4608 258.829 50.7321C259.291 51.0033 259.65 51.384 259.906 51.8744C260.166 52.3647 260.295 52.9386 260.295 53.5961C260.295 54.2481 260.166 54.8179 259.906 55.3055C259.65 55.7931 259.291 56.1725 258.829 56.4437C258.369 56.7149 257.834 56.8505 257.221 56.8505ZM257.221 55.9794C257.686 55.9794 258.069 55.8685 258.369 55.6465C258.67 55.4247 258.892 55.1329 259.037 54.7713C259.181 54.4097 259.253 54.018 259.253 53.5961C259.253 53.1742 259.181 52.7811 259.037 52.4168C258.892 52.0524 258.67 51.7579 258.369 51.5333C258.069 51.3087 257.686 51.1963 257.221 51.1963C256.756 51.1963 256.373 51.3087 256.073 51.5333C255.773 51.7579 255.55 52.0524 255.406 52.4168C255.262 52.7811 255.19 53.1742 255.19 53.5961C255.19 54.018 255.262 54.4097 255.406 54.7713C255.55 55.1329 255.773 55.4247 256.073 55.6465C256.373 55.8685 256.756 55.9794 257.221 55.9794ZM264.907 50.4074V51.2293H261.25V50.4074H264.907ZM262.345 56.7191V49.5363C262.345 49.1747 262.436 48.8733 262.62 48.6323C262.802 48.3912 263.039 48.2104 263.33 48.0899C263.622 47.9693 263.93 47.9091 264.253 47.9091C264.51 47.9091 264.719 47.9282 264.881 47.9666C265.043 48.0049 265.164 48.0405 265.243 48.0734L264.943 48.9117C264.89 48.8953 264.816 48.8747 264.722 48.85C264.631 48.8254 264.51 48.8131 264.36 48.8131C264.015 48.8131 263.766 48.8939 263.613 49.0555C263.463 49.2171 263.388 49.4541 263.388 49.7664V56.7191H262.345ZM269.319 50.4074V51.2293H265.803V50.4074H269.319ZM266.827 48.8953H267.87V54.911C267.87 55.1849 267.913 55.3904 267.998 55.5274C268.086 55.6616 268.198 55.752 268.334 55.7986C268.472 55.8424 268.618 55.8643 268.771 55.8643C268.886 55.8643 268.98 55.8588 269.054 55.8479C269.127 55.8342 269.186 55.8232 269.23 55.8151L269.442 56.6861C269.371 56.7108 269.273 56.7355 269.146 56.7602C269.02 56.7875 268.859 56.8013 268.665 56.8013C268.371 56.8013 268.082 56.7424 267.799 56.6246C267.52 56.5068 267.287 56.3273 267.101 56.0863C266.919 55.8452 266.827 55.5411 266.827 55.174V48.8953ZM272.424 56.7191L270.356 50.4074H271.452L272.918 55.2398H272.989L274.437 50.4074H275.55L276.982 55.2233H277.053L278.519 50.4074H279.614L277.547 56.7191H276.522L275.038 51.8702H274.932L273.448 56.7191H272.424ZM282.988 56.867C282.559 56.867 282.169 56.7916 281.818 56.641C281.468 56.4876 281.189 56.267 280.983 55.9794C280.777 55.689 280.674 55.3384 280.674 54.9275C280.674 54.5658 280.751 54.2728 280.904 54.0481C281.057 53.8207 281.262 53.6426 281.518 53.5139C281.774 53.3852 282.057 53.2893 282.365 53.2263C282.678 53.1606 282.992 53.1085 283.306 53.0701C283.719 53.0208 284.053 52.9839 284.309 52.9592C284.568 52.9318 284.756 52.8866 284.874 52.8236C284.995 52.7606 285.055 52.651 285.055 52.4949V52.462C285.055 52.0566 284.936 51.7415 284.698 51.5169C284.462 51.2923 284.105 51.1799 283.625 51.1799C283.127 51.1799 282.736 51.2813 282.454 51.484C282.171 51.6867 281.972 51.9031 281.858 52.1333L280.868 51.8045C281.045 51.421 281.28 51.1224 281.575 50.9087C281.872 50.6923 282.197 50.5416 282.547 50.4567C282.9 50.369 283.247 50.3252 283.589 50.3252C283.807 50.3252 284.057 50.3499 284.34 50.3992C284.625 50.4457 284.901 50.543 285.166 50.691C285.434 50.8389 285.656 51.0621 285.833 51.3607C286.009 51.6594 286.098 52.0593 286.098 52.5606V56.7191H285.055V55.8643H285.003C284.932 56.0013 284.814 56.1479 284.649 56.304C284.484 56.4602 284.265 56.593 283.991 56.7026C283.717 56.8122 283.383 56.867 282.988 56.867ZM283.147 55.9958C283.559 55.9958 283.907 55.9205 284.19 55.7698C284.475 55.6192 284.69 55.4247 284.834 55.1863C284.982 54.948 285.055 54.6974 285.055 54.4343V53.5468C285.011 53.5961 284.914 53.6413 284.764 53.6824C284.617 53.7207 284.446 53.755 284.252 53.7851C284.06 53.8125 283.874 53.8372 283.69 53.8591C283.511 53.8783 283.365 53.8947 283.254 53.9084C282.983 53.9413 282.73 53.9947 282.494 54.0686C282.261 54.1399 282.072 54.2481 281.928 54.3932C281.787 54.5357 281.717 54.7302 281.717 54.9768C281.717 55.3137 281.85 55.5685 282.118 55.741C282.389 55.9109 282.732 55.9958 283.147 55.9958ZM288.001 56.7191V50.4074H289.007V51.3607H289.078C289.201 51.0484 289.426 50.795 289.749 50.6005C290.073 50.406 290.438 50.3088 290.845 50.3088C290.922 50.3088 291.017 50.3101 291.132 50.3129C291.247 50.3156 291.334 50.3198 291.392 50.3252V51.3114C291.357 51.3032 291.276 51.2908 291.149 51.2744C291.026 51.2552 290.895 51.2457 290.756 51.2457C290.426 51.2457 290.132 51.3101 289.873 51.4388C289.617 51.5648 289.413 51.7401 289.264 51.9647C289.116 52.1867 289.043 52.4401 289.043 52.725V56.7191H288.001ZM295.266 56.8505C294.612 56.8505 294.049 56.7163 293.575 56.4479C293.103 56.1766 292.74 55.7986 292.483 55.3137C292.23 54.8261 292.103 54.259 292.103 53.6125C292.103 52.9661 292.23 52.3962 292.483 51.9031C292.74 51.4073 293.096 51.0211 293.552 50.7444C294.012 50.4649 294.547 50.3252 295.16 50.3252C295.514 50.3252 295.862 50.38 296.207 50.4896C296.551 50.5991 296.865 50.7772 297.147 51.0238C297.43 51.2676 297.656 51.5908 297.823 51.9935C297.991 52.3962 298.075 52.892 298.075 53.4811V53.892H292.846V53.0537H297.015C297.015 52.6975 296.938 52.3798 296.785 52.1003C296.635 51.821 296.42 51.6005 296.141 51.4388C295.863 51.2772 295.537 51.1963 295.16 51.1963C294.745 51.1963 294.385 51.2923 294.082 51.484C293.782 51.673 293.551 51.9196 293.389 52.2236C293.227 52.5277 293.146 52.8537 293.146 53.2016V53.7605C293.146 54.2371 293.234 54.6412 293.411 54.9726C293.59 55.3014 293.839 55.552 294.158 55.7246C294.475 55.8945 294.845 55.9794 295.266 55.9794C295.54 55.9794 295.787 55.9438 296.008 55.8726C296.232 55.7986 296.424 55.689 296.586 55.5438C296.749 55.3959 296.874 55.2124 296.962 54.9932L297.969 55.2562C297.863 55.574 297.685 55.8534 297.435 56.0944C297.184 56.3328 296.875 56.5191 296.507 56.6533C296.139 56.7848 295.726 56.8505 295.266 56.8505Z" fill="black"/>
</g>
<defs>
<filter id="filter0_d_90_47" x="0" y="0" width="308" height="78" filterUnits="userSpaceOnUse" color-interpolation-filters="sRGB">
<feFlood flood-opacity="0" result="BackgroundImageFix"/>
<feColorMatrix in="SourceAlpha" type="matrix" values="0 0 0 0 0 0 0 0 0 0 0 0 0 0 0 0 0 0 127 0" result="hardAlpha"/>
<feOffset dy="4"/>
<feGaussianBlur stdDeviation="2"/>
<feComposite in2="hardAlpha" operator="out"/>
<feColorMatrix type="matrix" values="0 0 0 0 0 0 0 0 0 0 0 0 0 0 0 0 0 0 0.25 0"/>
<feBlend mode="normal" in2="BackgroundImageFix" result="effect1_dropShadow_90_47"/>
<feBlend mode="normal" in="SourceGraphic" in2="effect1_dropShadow_90_47" result="shape"/>
</filter>
</defs>
</svg>
