<svg width="39" height="39" viewBox="0 0 39 39" fill="none" xmlns="http://www.w3.org/2000/svg">
<path d="M35.7044 19.5733C35.7044 28.4761 28.49 35.7045 19.5731 35.7045C10.6563 35.7045 3.44189 28.4761 3.44189 19.5733C3.44189 10.6704 10.6703 3.44202 19.5731 3.44202C28.476 3.44202 35.7044 10.6704 35.7044 19.5733Z" fill="#E3E4E8"/>
<path d="M38.1465 19.5733C38.1465 29.8297 29.8297 38.1465 19.5733 38.1465C9.3168 38.1465 1 29.8297 1 19.5733C1 9.3168 9.3168 1 19.5733 1C29.8297 1 38.1465 9.3168 38.1465 19.5733Z" stroke="url(#paint0_linear_111_18)" stroke-width="1.39544" stroke-miterlimit="10"/>
<path d="M13.7125 17.3684C13.7125 17.3684 12.9311 17.0754 12.8055 17.2708C12.666 17.4661 12.5404 18.1778 12.6939 18.722C12.8474 19.2662 13.2102 19.9221 13.4893 20.1035C13.7823 20.2849 14.4661 20.257 14.4661 20.257C14.4661 20.257 14.0335 18.0662 13.7125 17.3684Z" fill="#FA9884"/>
<path d="M25.5597 17.3684C25.5597 17.3684 26.3411 17.0754 26.4667 17.2708C26.5923 17.4661 26.7319 18.1778 26.5784 18.722C26.4249 19.2662 26.062 19.9221 25.783 20.1035C25.5039 20.2849 24.8062 20.257 24.8062 20.257C24.8062 20.257 25.2387 18.0662 25.5597 17.3684Z" fill="#FA9884"/>
<path d="M23.2853 26.9412C22.3504 26.1737 22.3085 25.5597 22.2527 24.9178C22.1829 24.0945 22.5876 21.5687 22.5876 21.5687H16.5454C16.5454 21.5687 16.9501 24.0805 16.8803 24.9178C16.8245 25.5597 16.7826 26.1876 15.8477 26.9412L19.5595 32.788L23.2714 26.9412H23.2853Z" fill="#FFC2AB"/>
<path d="M22.2667 24.1503C22.3504 23.0758 22.5876 21.5687 22.5876 21.5687H16.5454C16.5454 21.5687 16.7826 22.9781 16.8664 24.0386C17.9129 24.9736 19.0432 25.5736 19.6293 25.5736C20.2154 25.5736 21.248 25.0155 22.2527 24.1503H22.2667Z" fill="#FA9884"/>
<path d="M19.5735 35.7045C23.8435 35.7045 27.7228 34.03 30.5974 31.3228C30.1648 31.0716 26.2576 28.7413 24.318 27.6389C23.8854 27.4016 23.5505 27.1644 23.2853 26.9551L19.5735 32.802L15.8616 26.9551C15.5965 27.1644 15.2616 27.3877 14.8429 27.6389C12.9033 28.7413 8.99606 31.0716 8.56348 31.3228C11.452 34.03 15.3174 35.7045 19.6014 35.7045H19.5735Z" fill="#E14A03"/>
<path d="M22.3923 25.769L19.9642 30.3321L19.5596 32.7741L20.9271 30.6251L23.4249 31.3926C23.4249 31.3926 23.9133 27.4575 23.9412 27.3737C23.9691 27.29 23.9971 27.1226 23.9412 27.0249C23.8854 26.9272 22.6574 25.7411 22.6574 25.7411H22.4063L22.3923 25.769Z" fill="white"/>
<path d="M16.7406 25.769L19.1547 30.3321L19.5594 32.7741L18.1919 30.6251L15.694 31.3926C15.694 31.3926 15.2056 27.4575 15.1777 27.3737C15.1498 27.29 15.1219 27.1226 15.1777 27.0249C15.2336 26.9272 16.4615 25.7411 16.4615 25.7411H16.7127L16.7406 25.769Z" fill="white"/>
<path d="M19.6294 7.61438C24.8483 7.61438 25.8251 12.3728 25.8112 14.2567C25.7972 16.1265 25.3367 18.2197 24.6669 20.7454C23.9832 23.2712 20.7876 24.4992 19.6434 24.4992C18.4991 24.4992 15.3035 23.2712 14.6198 20.7454C13.936 18.2197 13.4895 16.1405 13.4616 14.2567C13.4476 12.3868 14.4105 7.61438 19.6434 7.61438H19.6294Z" fill="#FFC2AB"/>
<path d="M27.5271 13.1682C27.4015 13.0845 27.1643 12.6659 27.0527 12.1775C26.969 11.7449 26.648 10.9076 26.1457 10.3215C26.5085 10.0145 26.662 9.51218 26.6061 9.23309C26.5643 9.06564 26.4526 8.96796 26.2992 8.96796C26.2992 8.96796 26.2852 8.96796 26.2712 8.96796C26.0619 8.96796 24.9874 8.73073 24.2479 8.04697C23.5781 7.41902 22.0849 6.35849 19.6429 6.2329C17.5219 6.12127 16.0706 6.77712 15.2194 8.22837C14.2705 8.1586 13.5867 8.47955 13.182 9.19123C12.6797 10.0704 12.3169 11.396 12.1494 12.1077C11.9959 12.7635 11.4517 13.2799 11.2843 13.4194C11.1866 13.5031 11.1587 13.6427 11.2145 13.7683C11.2982 13.9915 11.6331 14.2985 12.0797 14.3404C12.1215 14.7172 12.2192 15.5265 12.4006 16.2521C12.6797 17.2848 13.7123 17.7173 13.7542 17.7313C13.81 17.7592 13.8937 17.7592 13.9495 17.7313C14.0054 17.6894 14.0472 17.6336 14.0472 17.5638C14.0472 17.5638 14.117 16.9359 14.2984 16.3219C14.4379 16.1405 14.6193 15.8754 14.7589 15.5126C14.7589 15.5544 14.7728 15.5544 14.7728 15.5684C14.8147 15.6381 14.8984 15.694 14.9682 15.694C15.2054 15.694 15.4427 15.2474 15.6101 14.8707C15.7497 14.5357 15.8055 14.159 15.8613 13.7962C15.9031 13.531 15.9311 13.2659 16.0148 13.0287C16.0985 12.7635 16.2101 12.5961 16.3218 12.5961C16.3636 12.5961 16.4753 12.624 16.6567 12.7915C16.6985 12.8333 16.7683 12.8612 16.8241 12.8473C16.88 12.8473 16.9497 12.8054 16.9776 12.7496C17.2428 12.3728 17.5079 12.1775 17.8009 12.1775C18.2475 12.1775 18.8196 12.5961 19.5731 13.5031C20.3825 14.452 21.5826 14.8846 21.8896 14.8846C22.071 14.8846 22.1268 14.773 22.1547 14.7172C22.1966 14.5916 22.1547 14.4381 22.0152 14.1729C23.0059 14.8009 24.192 15.0939 24.2618 15.0939C24.3316 15.0939 24.4153 15.0521 24.4572 14.9962C24.499 14.9404 24.513 14.8288 24.513 14.7032C24.513 14.7032 24.5409 14.7172 24.5549 14.7311C24.6944 15.8614 25.2107 17.5359 25.2247 17.6057C25.2526 17.7034 25.3363 17.7592 25.434 17.7592C25.4479 17.7592 25.4619 17.7592 25.4758 17.7592C25.4898 17.7592 25.8526 17.6755 26.1736 17.4243C26.1875 17.4243 26.2015 17.3964 26.2154 17.3685C26.6201 16.7405 27.0527 15.0381 26.8852 14.0194C27.2201 13.9636 27.583 13.7683 27.6527 13.531C27.6946 13.4054 27.6527 13.2659 27.5271 13.1961V13.1682Z" fill="#242736"/>
<defs>
<linearGradient id="paint0_linear_111_18" x1="16.0009" y1="0.637187" x2="23.1316" y2="38.5093" gradientUnits="userSpaceOnUse">
<stop stop-color="#FB5000"/>
<stop offset="1" stop-color="#CF4504"/>
</linearGradient>
</defs>
</svg>
